<svg xmlns="http://www.w3.org/2000/svg" width="49.218" height="60"><g id="icon1" transform="translate(-526.374 -5784.615)"><path id="Path_384" data-name="Path 384" d="M570.319,5838.463a.879.879,0,1,0,.879.879A.88.88,0,0,0,570.319,5838.463Zm2.637-3.685v-5.073a9,9,0,0,0-1.476-4.946.879.879,0,1,0-1.47.964,7.243,7.243,0,0,1,1.188,3.982v4.438a5.242,5.242,0,0,0-1.758,0v-4.438a5.522,5.522,0,1,0-11.045,0v5.071a7.28,7.28,0,1,1-14.56,0v-2.614a2.676,2.676,0,0,0,.881.151,2.64,2.64,0,0,0,.876-.152v2.615a5.523,5.523,0,0,0,11.045,0v-5.071a7.279,7.279,0,0,1,10.7-6.427.879.879,0,1,0,.829-1.55,9.037,9.037,0,0,0-13.287,7.977v5.072a3.765,3.765,0,0,1-7.529,0v-12a18.34,18.34,0,0,0,15.7-18.15,2.668,2.668,0,0,0-1.758-2.488V5793.7a6.662,6.662,0,0,0-4.865-6.429,3.286,3.286,0,0,0-3.22-2.653h-1.758a3.281,3.281,0,1,0,0,6.563h1.758a3.286,3.286,0,0,0,3.066-2.116,4.91,4.91,0,0,1,3.262,4.635v8.441a2.689,2.689,0,0,0-1.758,2.529,13.06,13.06,0,0,1-21.358,10.046.879.879,0,0,0-1.118,1.357,14.818,14.818,0,0,0,24.233-11.4.921.921,0,0,1,.828-.929.889.889,0,0,1,.93.878,16.582,16.582,0,0,1-14.615,16.466,1.231,1.231,0,0,0-1.088,1.221v7.367a.889.889,0,0,1-.922.878.915.915,0,0,1-.836-.927v-7.318a1.231,1.231,0,0,0-1.088-1.221,16.582,16.582,0,0,1-14.615-16.466.889.889,0,0,1,.931-.878.919.919,0,0,1,.827.929,14.738,14.738,0,0,0,2.529,8.222.879.879,0,0,0,1.457-.983,12.982,12.982,0,0,1-2.228-7.245,2.689,2.689,0,0,0-1.758-2.529V5793.7a4.908,4.908,0,0,1,3.262-4.635,3.286,3.286,0,0,0,3.066,2.116h1.758a3.281,3.281,0,0,0,0-6.563h-1.758a3.286,3.286,0,0,0-3.22,2.653,6.663,6.663,0,0,0-4.866,6.429v8.437a2.669,2.669,0,0,0-1.757,2.488,18.34,18.34,0,0,0,15.7,18.15v12a9.038,9.038,0,1,0,18.076,0v-5.071a3.764,3.764,0,1,1,7.529,0v5.073a5.273,5.273,0,1,0,5.274,0ZM553.21,5789.42h-1.758a1.523,1.523,0,1,1,0-3.047h1.758a1.523,1.523,0,0,1,0,3.047Zm-16.993-3.047h1.758a1.523,1.523,0,1,1,0,3.047h-1.758a1.523,1.523,0,0,1,0-3.047Zm34.1,56.485a3.516,3.516,0,1,1,3.516-3.516A3.52,3.52,0,0,1,570.319,5842.858Z" fill="#78c53c"/></g></svg>