<svg xmlns="http://www.w3.org/2000/svg" width="42.044" height="60"><g id="g4655" transform="translate(-1348.968 -6609.222)"><g id="g4657"><g id="g4663"><path id="Path_363" data-name="Path 363" d="M1379.171,6623.059h-18.362a2.237,2.237,0,0,1-2.234-2.234v-1.732a.875.875,0,0,1,.874-.874h2.614a.874.874,0,0,1,0,1.749h-1.74v.857a.486.486,0,0,0,.486.486h18.362a.486.486,0,0,0,.485-.486v-.857h-13.491a.874.874,0,1,1,0-1.749h14.365a.874.874,0,0,1,.874.874v1.732A2.237,2.237,0,0,1,1379.171,6623.059Z" fill="#78c53c"/></g><g id="g4667"><path id="Path_364" data-name="Path 364" d="M1380.53,6619.968a.875.875,0,0,1-.874-.875v-5.125h-6.124a1.454,1.454,0,0,1-1.446-1.224,2.126,2.126,0,0,0-4.193,0,1.455,1.455,0,0,1-1.445,1.221h-6.125v5.125a.874.874,0,1,1-1.748,0v-5.319a1.555,1.555,0,0,1,1.554-1.554h6.088a3.874,3.874,0,0,1,7.547,0h6.087a1.555,1.555,0,0,1,1.553,1.554v5.319A.874.874,0,0,1,1380.53,6619.968Zm-6.719-7.507v0Z" fill="#78c53c"/></g><g id="g4671"><path id="Path_365" data-name="Path 365" d="M1369.991,6613.966a.872.872,0,0,1-.621-.252.915.915,0,0,1-.185-.291.75.75,0,0,1-.067-.33.775.775,0,0,1,.067-.33.788.788,0,0,1,.185-.282.891.891,0,0,1,1.233,0,.812.812,0,0,1,.194.282.777.777,0,0,1,.068.33.9.9,0,0,1-.068.33.945.945,0,0,1-.194.291A.867.867,0,0,1,1369.991,6613.966Z" fill="#78c53c"/></g><g id="g4675"><path id="Path_366" data-name="Path 366" d="M1389.3,6669.222h-38.611a1.72,1.72,0,0,1-1.717-1.717v-13.151a.874.874,0,1,1,1.748,0V6667.5l38.58-.032-.033-52.856-8.733.032a.875.875,0,0,1,0-1.749h8.766a1.719,1.719,0,0,1,1.716,1.717V6667.5A1.719,1.719,0,0,1,1389.3,6669.222Z" fill="#78c53c"/></g><g id="g4679"><path id="Path_367" data-name="Path 367" d="M1349.842,6651.127a.874.874,0,0,1-.874-.874v-35.636a1.72,1.72,0,0,1,1.717-1.717h8.764a.875.875,0,0,1,0,1.749h-8.764l.031,35.6A.874.874,0,0,1,1349.842,6651.127Z" fill="#78c53c"/></g><g id="g4683"><path id="Path_368" data-name="Path 368" d="M1387.208,6629.607a.874.874,0,0,1-.874-.874v-11.086l-5.8-.069a.874.874,0,0,1,0-1.748h5.735a1.819,1.819,0,0,1,1.817,1.817v11.086A.875.875,0,0,1,1387.208,6629.607Z" fill="#78c53c"/></g><g id="g4687"><path id="Path_369" data-name="Path 369" d="M1375.174,6666.291h-21.46a1.818,1.818,0,0,1-1.816-1.816v-46.828a1.819,1.819,0,0,1,1.816-1.817h5.735a.874.874,0,0,1,0,1.748h-5.735l-.067,46.9,21.527.068a4.114,4.114,0,0,0,4.111-4.11v-1.122a1.818,1.818,0,0,1,1.816-1.816h1.123a4.115,4.115,0,0,0,4.11-4.111v-20.549a.874.874,0,0,1,1.748,0v20.549a5.865,5.865,0,0,1-5.858,5.859H1381.1l-.068,1.19A5.865,5.865,0,0,1,1375.174,6666.291Z" fill="#78c53c"/></g><g id="g4691"><path id="Path_370" data-name="Path 370" d="M1371.667,6637.489h-3.355a1.191,1.191,0,0,1-1.19-1.19v-2.567h-2.565a1.191,1.191,0,0,1-1.19-1.19v-3.355a1.191,1.191,0,0,1,1.19-1.19h2.565v-2.566a1.191,1.191,0,0,1,1.19-1.19h3.355a1.19,1.19,0,0,1,1.19,1.19V6628h2.567a1.191,1.191,0,0,1,1.19,1.19v3.355a1.191,1.191,0,0,1-1.19,1.19h-2.567v2.567A1.191,1.191,0,0,1,1371.667,6637.489Zm-2.8-1.749h2.238v-2.566a1.193,1.193,0,0,1,1.191-1.19h2.565v-2.239H1372.3a1.192,1.192,0,0,1-1.191-1.19v-2.566h-2.238v2.566a1.191,1.191,0,0,1-1.19,1.19h-2.566v2.239h2.566a1.192,1.192,0,0,1,1.19,1.19Zm6.553-6h0Z" fill="#78c53c"/></g><g id="g4695"><path id="Path_371" data-name="Path 371" d="M1361.259,6645.064h-2.978a1.242,1.242,0,0,1-1.24-1.24v-2.978a1.242,1.242,0,0,1,1.24-1.24h2.978a1.241,1.241,0,0,1,1.239,1.24v2.978A1.242,1.242,0,0,1,1361.259,6645.064Zm-2.47-1.748h1.961v-1.962h-1.961Z" fill="#78c53c"/></g><g id="g4699"><path id="Path_372" data-name="Path 372" d="M1361.259,6653.038h-2.978a1.242,1.242,0,0,1-1.24-1.24v-2.977a1.242,1.242,0,0,1,1.24-1.24h2.978a1.242,1.242,0,0,1,1.239,1.24v2.977A1.241,1.241,0,0,1,1361.259,6653.038Zm-2.47-1.748h1.961v-1.961h-1.961Z" fill="#78c53c"/></g><g id="g4703"><path id="Path_373" data-name="Path 373" d="M1361.259,6661.014h-2.978a1.242,1.242,0,0,1-1.24-1.24V6656.8a1.241,1.241,0,0,1,1.24-1.239h2.978a1.24,1.24,0,0,1,1.239,1.239v2.978A1.242,1.242,0,0,1,1361.259,6661.014Zm-2.47-1.748h1.961v-1.961h-1.961Z" fill="#78c53c"/></g><g id="g4707"><path id="Path_374" data-name="Path 374" d="M1382.064,6643.1h-17.24a.874.874,0,0,1,0-1.748h17.24a.874.874,0,1,1,0,1.748Z" fill="#78c53c"/></g><g id="g4711"><path id="Path_375" data-name="Path 375" d="M1382.064,6651.243h-17.24a.875.875,0,0,1,0-1.749h17.24a.875.875,0,1,1,0,1.749Z" fill="#78c53c"/></g><g id="g4715"><path id="Path_376" data-name="Path 376" d="M1380.6,6659.386h-15.777a.874.874,0,0,1,0-1.748H1380.6a.874.874,0,1,1,0,1.748Z" fill="#78c53c"/></g><g id="g4719"><path id="Path_377" data-name="Path 377" d="M1375.174,6666.291a.874.874,0,0,1,0-1.748,11.158,11.158,0,0,0,11.16-11.159.874.874,0,0,1,1.748,0,12.905,12.905,0,0,1-12.908,12.907Z" fill="#78c53c"/></g></g></g></svg>