<svg xmlns="http://www.w3.org/2000/svg" viewBox="0 0 58.48 40"><defs><style>.cls-1{fill:#78c53c;}</style></defs><g id="Layer_2" data-name="Layer 2"><g id="Design"><path class="cls-1" d="M56.41,25H54.24a2.08,2.08,0,0,0-2.08,2.07v2.27H50.87V23.8a7.53,7.53,0,0,0-7.5-7.51h-13a1.38,1.38,0,0,1-1.15-.61,3.31,3.31,0,0,0-4-1.26l-.08,0-1.41-2.82a5.33,5.33,0,0,0-4.31-2.91l-.18,0,.11-.14a5.33,5.33,0,1,0-8.44,0l0,0,.1.13-.17,0a4.21,4.21,0,0,0-3.43,4.87,2.21,2.21,0,0,0,0,.25l2,8.81-.79.42-.17.11c-1.46,1.24-1.2,3.18.76,5.79l.23.31H6.32V16.19a2.07,2.07,0,0,0-2.07-2.07H2.07A2.07,2.07,0,0,0,0,16.19V37.93A2.07,2.07,0,0,0,2.07,40H4.25a2.07,2.07,0,0,0,2.07-2.07V36.74H52.16v1.19A2.08,2.08,0,0,0,54.24,40h2.17a2.07,2.07,0,0,0,2.07-2.07V27.06A2.07,2.07,0,0,0,56.41,25ZM25.32,16.61l.18-.12a1.37,1.37,0,0,1,1.94.16l.1.12a3.23,3.23,0,0,0,.48.56l.1.1-6,3.52a1,1,0,1,0,1,1.71l7.52-4.39H43.37A5.54,5.54,0,0,1,48.9,23.8v5.53H12l-1.12-1.49c-.79-1.05-1.63-2.43-1.14-3l0,0ZM11.78,4.9h0A3.36,3.36,0,0,1,15.11,2a3.1,3.1,0,0,1,.43,0,3.36,3.36,0,0,1-.42,6.7,3.11,3.11,0,0,1-.43,0A3.37,3.37,0,0,1,11.78,4.9ZM9.39,13.45a2.27,2.27,0,0,1,2.21-2.79H19a3.31,3.31,0,0,1,3,1.86l1.44,2.87L11.31,21.75l0-.12ZM56.51,38H54.13V35.75a1,1,0,0,0-1-1H5.33a1,1,0,0,0-1,1V38H2V16.09H4.35V30.32a1,1,0,0,0,1,1H53.15a1,1,0,0,0,1-1V27h2.38Z"/><path class="cls-1" d="M18.72,25.21,19,25a1,1,0,0,0,.36-1.35,1,1,0,0,0-.86-.49,1,1,0,0,0-.49.14l-.3.17a1,1,0,1,0,1,1.7Z"/></g></g></svg>