<svg xmlns="http://www.w3.org/2000/svg" viewBox="0 0 35.04 50"><defs><style>.cls-1{fill:#78c53c;}</style></defs><g id="Layer_2" data-name="Layer 2"><g id="Design"><g id="g4655"><g id="g4657"><g id="g4663"><path class="cls-1" d="M25.17,11.53H9.87A1.86,1.86,0,0,1,8,9.67V8.23a.72.72,0,0,1,.72-.73h2.18a.73.73,0,1,1,0,1.45H9.46v.72a.4.4,0,0,0,.41.4h15.3a.4.4,0,0,0,.4-.4V9H14.33a.73.73,0,1,1,0-1.45h12a.73.73,0,0,1,.73.73V9.67A1.86,1.86,0,0,1,25.17,11.53Z"/></g><g id="g4667"><path class="cls-1" d="M26.3,9a.73.73,0,0,1-.73-.72V4h-5.1a1.21,1.21,0,0,1-1.2-1,1.77,1.77,0,0,0-3.5,0,1.21,1.21,0,0,1-1.2,1H9.46V8.23A.73.73,0,0,1,8,8.23V3.79A1.29,1.29,0,0,1,9.3,2.5h5.07a3.23,3.23,0,0,1,6.29,0h5.08A1.29,1.29,0,0,1,27,3.79V8.23A.73.73,0,0,1,26.3,9ZM20.7,2.7Z"/></g><g id="g4671"><path class="cls-1" d="M17.52,4A.73.73,0,0,1,17,3.74a.75.75,0,0,1-.15-.24.63.63,0,0,1-.06-.27A.67.67,0,0,1,16.85,3,.61.61,0,0,1,17,2.72a.74.74,0,0,1,1,0,.63.63,0,0,1,.16.23.67.67,0,0,1,.06.28.82.82,0,0,1-.06.27.78.78,0,0,1-.16.24A.71.71,0,0,1,17.52,4Z"/></g><g id="g4675"><path class="cls-1" d="M33.61,50H1.43A1.43,1.43,0,0,1,0,48.57v-11a.73.73,0,0,1,.73-.73.73.73,0,0,1,.73.73v11l32.15,0,0-44-7.28,0a.73.73,0,1,1,0-1.45h7.31A1.44,1.44,0,0,1,35,4.5V48.57A1.44,1.44,0,0,1,33.61,50Z"/></g><g id="g4679"><path class="cls-1" d="M.73,34.92A.73.73,0,0,1,0,34.19V4.5A1.43,1.43,0,0,1,1.43,3.07h7.3a.73.73,0,1,1,0,1.45H1.43l0,29.67A.73.73,0,0,1,.73,34.92Z"/></g><g id="g4683"><path class="cls-1" d="M31.87,17a.73.73,0,0,1-.73-.73V7L26.3,7a.73.73,0,1,1,0-1.45h4.78A1.52,1.52,0,0,1,32.6,7v9.24A.73.73,0,0,1,31.87,17Z"/></g><g id="g4687"><path class="cls-1" d="M21.84,47.56H4A1.52,1.52,0,0,1,2.44,46V7A1.52,1.52,0,0,1,4,5.51H8.73A.73.73,0,1,1,8.73,7H4L3.9,46l17.94.06a3.42,3.42,0,0,0,3.42-3.42v-.94a1.52,1.52,0,0,1,1.52-1.51h.93a3.44,3.44,0,0,0,3.43-3.43V19.68a.73.73,0,1,1,1.46,0V36.8a4.9,4.9,0,0,1-4.89,4.88h-.93l-.06,1A4.89,4.89,0,0,1,21.84,47.56Z"/></g><g id="g4691"><path class="cls-1" d="M18.92,23.56h-2.8a1,1,0,0,1-1-1V20.43H13a1,1,0,0,1-1-1V16.64a1,1,0,0,1,1-1h2.14V13.51a1,1,0,0,1,1-1h2.8a1,1,0,0,1,1,1v2.14h2.14a1,1,0,0,1,1,1v2.79a1,1,0,0,1-1,1H19.91v2.13A1,1,0,0,1,18.92,23.56ZM16.59,22.1h1.86V20a1,1,0,0,1,1-1h2.14V17.1H19.44a1,1,0,0,1-1-1V14H16.59v2.14a1,1,0,0,1-1,1H13.46V19h2.13a1,1,0,0,1,1,1Zm5.46-5Z"/></g><g id="g4695"><path class="cls-1" d="M10.24,29.87H7.76a1,1,0,0,1-1-1V26.35a1,1,0,0,1,1-1h2.48a1,1,0,0,1,1,1v2.49A1,1,0,0,1,10.24,29.87ZM8.18,28.41H9.82V26.78H8.18Z"/></g><g id="g4699"><path class="cls-1" d="M10.24,36.51H7.76a1,1,0,0,1-1-1V33a1,1,0,0,1,1-1h2.48a1,1,0,0,1,1,1v2.48A1,1,0,0,1,10.24,36.51ZM8.18,35.06H9.82V33.42H8.18Z"/></g><g id="g4703"><path class="cls-1" d="M10.24,43.16H7.76a1,1,0,0,1-1-1V39.65a1,1,0,0,1,1-1h2.48a1,1,0,0,1,1,1v2.48A1,1,0,0,1,10.24,43.16ZM8.18,41.7H9.82V40.07H8.18Z"/></g><g id="g4707"><path class="cls-1" d="M27.58,28.23H13.21a.73.73,0,1,1,0-1.45H27.58a.73.73,0,1,1,0,1.45Z"/></g><g id="g4711"><path class="cls-1" d="M27.58,35H13.21a.73.73,0,0,1,0-1.46H27.58a.73.73,0,0,1,0,1.46Z"/></g><g id="g4715"><path class="cls-1" d="M26.36,41.8H13.21a.73.73,0,1,1,0-1.45H26.36a.73.73,0,1,1,0,1.45Z"/></g><g id="g4719"><path class="cls-1" d="M21.84,47.56a.73.73,0,1,1,0-1.46,9.3,9.3,0,0,0,9.3-9.3.73.73,0,0,1,1.46,0A10.75,10.75,0,0,1,21.84,47.56Z"/></g></g></g></g></g></svg>