<svg xmlns="http://www.w3.org/2000/svg" width="59.944" height="60"><g id="icon5" transform="translate(-930.033 -6195.667)"><path id="Path_386" data-name="Path 386" d="M967.766,6205.488l12.435,12.434L966.32,6231.8a.878.878,0,0,0,1.242,1.243l19.374-19.375a10.571,10.571,0,0,0,2.623-4.348.878.878,0,1,0-1.679-.517,8.814,8.814,0,0,1-2.186,3.623l-1.088,1.088-12.435-12.434L973.26,6200a8.793,8.793,0,0,1,14.965,5.329.878.878,0,1,0,1.747-.176,10.549,10.549,0,0,0-17.955-6.4l-9.716,9.717a.878.878,0,0,0,1.242,1.242Zm15.6,9.272-1.92,1.92-12.434-12.434,1.92-1.921Z" fill="#78c53c"/><path id="Path_387" data-name="Path 387" d="M935.649,6254.7l6.467-6.467a25.008,25.008,0,0,1,7.817-4.926l9.142-3.274a11.135,11.135,0,0,0,4.089-2.59l1.691-1.692a.878.878,0,0,0-1.242-1.242l-1.691,1.691a9.358,9.358,0,0,1-3.44,2.179c-9.573,3.486-8.643,2.932-11.263,4.269a3.956,3.956,0,0,1-4.18-4.179c1.337-2.618.78-1.678,4.269-11.263a9.359,9.359,0,0,1,2.179-3.44l11.349-11.349a.878.878,0,0,0-1.242-1.242l-11.349,11.349a11.122,11.122,0,0,0-2.59,4.089l-3.275,9.142a25.439,25.439,0,0,1-4.925,7.816c-6.794,6.8-6.475,6.464-6.626,6.645a3.294,3.294,0,0,0,4.82,4.484Zm6.052-13.833a5.734,5.734,0,0,0,3.12,3.119c-3.62,2.213-4.615,3.826-6.374,5.432l-2.177-2.177C938.285,6245.143,939.639,6244.243,941.7,6240.868Zm-9.523,12.536a1.591,1.591,0,0,1,.1-2.17l2.75-2.75,2.177,2.177-2.8,2.8a1.538,1.538,0,0,1-2.229-.055Z" fill="#78c53c"/><path id="Path_388" data-name="Path 388" d="M956.877,6228.812a5.719,5.719,0,0,0,8.08,0l10.269-10.269a.878.878,0,0,0,0-1.242l-6.838-6.838a.88.88,0,0,0-1.243,0l-10.268,10.268a5.711,5.711,0,0,0,0,8.081Zm16.486-10.89-9.648,9.648a3.963,3.963,0,0,1-5.6,0h0a3.954,3.954,0,0,1,0-5.6l9.647-9.648Z" fill="#78c53c"/><path id="Path_389" data-name="Path 389" d="M964.957,6221.973l3.419-3.419a.878.878,0,0,0-1.242-1.242l-3.419,3.419a.878.878,0,1,0,1.242,1.242Z" fill="#78c53c"/><path id="Path_390" data-name="Path 390" d="M949.793,6231.234a3.3,3.3,0,1,0,4.661,0,3.286,3.286,0,0,0-4.661,0Zm3.419,1.243a1.539,1.539,0,1,1-2.177,0,1.541,1.541,0,0,1,2.177,0Z" fill="#78c53c"/></g></svg>