<svg xmlns="http://www.w3.org/2000/svg" width="43.454" height="60"><g id="icon2" transform="translate(-938.273 -5784.615)"><g id="Group_321" data-name="Group 321"><g id="Group_320" data-name="Group 320"><path id="Path_360" data-name="Path 360" d="M960.3,5831.695a22.485,22.485,0,0,1-5.717-5.567h2.238a.878.878,0,1,0,0-1.756h-3.361a21,21,0,0,1-1.337-2.785,17.846,17.846,0,0,1-1.271-5.434.878.878,0,0,0-1.756.037,18.507,18.507,0,0,0,1.068,5.153,33.07,33.07,0,0,0-1.061,5.24.876.876,0,0,0,.763.978.828.828,0,0,0,.109.007.878.878,0,0,0,.87-.77c.068-.549.229-1.662.446-2.761.255.513.543,1.045.87,1.59a.89.89,0,0,0,.088.147,23.475,23.475,0,0,0,2.958,3.878,15.4,15.4,0,0,0,.056,3.9.878.878,0,0,0,.856.685.911.911,0,0,0,.194-.021.878.878,0,0,0,.663-1.05,8.806,8.806,0,0,1-.1-1.91,25.388,25.388,0,0,0,2.438,1.889.878.878,0,0,0,.99-1.451Z" fill="#78c53c"/></g></g><g id="Group_323" data-name="Group 323"><g id="Group_322" data-name="Group 322"><path id="Path_361" data-name="Path 361" d="M980.647,5822.107c-.115-.665-.223-1.293-.325-1.919-.143-.873-.248-1.576-.329-2.213a19.319,19.319,0,0,1-.19-3.882c.445-5.68-1.484-9.252-3.651-11.443a4.386,4.386,0,0,0-1.3-8.652,31.752,31.752,0,0,0-3.9.594,14.457,14.457,0,0,0-2.06-1.92l1.044-3.466a3.094,3.094,0,1,0-5.925-1.784l-.806,2.678-.086-.017v-2.374a3.094,3.094,0,0,0-6.188,0v2.469l-.058.015-.835-2.772a3.093,3.093,0,1,0-5.924,1.784l1.25,4.151a15.993,15.993,0,0,0-1.835,2.135c-3.416-.064-6.416.022-7.005.041a4.387,4.387,0,0,0,.134,8.771c.048,0,.1,0,.144,0,.4-.012.844-.023,1.317-.032a18.856,18.856,0,0,0-3.641,11.747c0,.053,0,.1.006.158s.005.108.005.162a18.082,18.082,0,0,0,.378,3.61.878.878,0,1,0,1.721-.35,16.356,16.356,0,0,1-.344-3.258c0-.081,0-.163-.007-.244,0-.04,0-.079,0-.119a17.054,17.054,0,0,1,3.238-10.587c-.15.737-.216,1.211-.227,1.3a4.386,4.386,0,0,0,8.694,1.173l.007-.05v-.006l.005-.03v-.007l.006-.039,0-.009.007-.043,0-.014.01-.054v-.008l.012-.069v0c.009-.052.02-.108.031-.169l0-.02.014-.073.007-.033.013-.066.008-.041.013-.067.009-.043.015-.069.01-.049.016-.07.011-.052.017-.076.011-.051.02-.087.01-.046.031-.13.011-.047.025-.1.016-.065.02-.081.018-.072.021-.08.02-.076.021-.08.021-.078.022-.081.022-.081.024-.084.023-.082.024-.084.025-.085.026-.086.025-.086.031-.1c.016-.051.032-.1.049-.155l.027-.087.032-.095.021-.067.093.009.125.012.24.026.11.012.306.038.025,0,.3.04.1.015c.066.009.13.019.193.03l.1.016.178.031.082.015.237.048a3.907,3.907,0,0,1,2.338,1.369l0,0,.061.078c.046.058.09.118.133.179.025.036.049.073.073.109l.055.082a6.538,6.538,0,0,1,.643,1.364,9.987,9.987,0,0,1,.414,1.9,4.419,4.419,0,0,0,4.12,3.833c.083,0,.166.007.249.007h0c.078,0,.155,0,.233-.006l.1-.008c.044,0,.089-.006.134-.011l.108-.014.124-.017.109-.02c.041-.007.081-.015.122-.024s.07-.016.106-.025.081-.019.121-.03l.1-.03c.041-.012.081-.025.121-.038l.1-.035.12-.044.1-.039.119-.052c.032-.014.063-.029.094-.044l.117-.059.09-.047.116-.067.086-.051.114-.074.081-.055.113-.082.077-.058c.038-.029.075-.061.112-.092l.07-.057c.04-.036.079-.072.118-.109.019-.017.039-.034.057-.052.057-.055.113-.112.167-.17a4.355,4.355,0,0,0,1.131-3.54q-.1-.792-.268-1.554a18.838,18.838,0,0,1,2.561,3.737c-.136,1.1-1.664,2.856-2.777,3.811a.878.878,0,0,0,.572,1.544.87.87,0,0,0,.57-.211,16.193,16.193,0,0,0,1.669-1.7,10.964,10.964,0,0,0,.917-1.241,15.73,15.73,0,0,1,.823,6.506.879.879,0,0,0,.8.947l.072,0a.878.878,0,0,0,.874-.806,17.628,17.628,0,0,0,.028-2.506,4.477,4.477,0,0,1,.709.66.878.878,0,0,0,1.429-1.02,11.938,11.938,0,0,0-2.45-2.044,18.109,18.109,0,0,0-1.54-4.487.833.833,0,0,0-.06-.122,19.62,19.62,0,0,0-1.511-2.506,20.886,20.886,0,0,0-2.973-3.37,21.563,21.563,0,0,1,3.83-1.216l.164-.037.023,0c.43-.093.816-.166,1.133-.221,3.107,2.435,4.55,6.225,4.177,10.987a20.827,20.827,0,0,0,.2,4.243c.084.657.192,1.379.338,2.272.1.634.212,1.265.327,1.934a48.238,48.238,0,0,1,1.031,10.042.879.879,0,0,0,.836.918h.042a.879.879,0,0,0,.876-.837A49.558,49.558,0,0,0,980.647,5822.107ZM946.694,5801h0c-.033.09-.065.182-.1.273l-.04.115c-.033.093-.064.187-.1.282l-.021.062q-.1.3-.194.607l0,.012c-.014.047-.029.093-.044.14h-.1c-1.2.006-2.413.026-3.353.055a2.63,2.63,0,1,1-.166-5.258c.429-.014,2.156-.063,4.388-.063.463,0,.948,0,1.447.007q-.33.581-.636,1.2l-.005.011q-.1.209-.2.421c-.061.131-.12.262-.178.392-.021.047-.041.1-.062.142-.037.084-.073.169-.109.253l-.074.177-.089.218c-.026.066-.053.132-.079.2s-.051.13-.076.194C946.832,5800.625,946.762,5800.81,946.694,5801Zm27.32.171a.383.383,0,0,0-.047,0,25.281,25.281,0,0,0-6.1,1.736l-.033.015c-.082.038-.163.075-.243.114l-.072.035c-.068.033-.135.067-.2.1l-.084.043-.2.1-.078.042c-.088.049-.175.1-.261.149l-.005,0c-.015.008-.028.018-.042.027l-.029.02c-.012.008-.023.018-.034.027s-.023.018-.033.028l-.026.024a.361.361,0,0,0-.036.037l-.02.023c-.013.015-.025.03-.036.045l-.01.012-.007.011-.031.048-.015.027a.422.422,0,0,0-.023.045l-.015.031c-.006.014-.011.028-.016.042s-.01.024-.014.037-.007.025-.011.038-.012.049-.017.073-.006.03-.008.046l0,.032c0,.014,0,.028,0,.043v.008a.276.276,0,0,0,0,.029c0,.018,0,.036,0,.054l0,.028c0,.018,0,.036.007.054l.005.03.007.034,0,.015.01.036c0,.014.008.028.013.042s.01.027.016.041l.009.022c.194.442.368.9.517,1.351a17.109,17.109,0,0,1,.683,3.059,2.52,2.52,0,0,1,.022.289,2.6,2.6,0,0,1-.7,1.827,2.647,2.647,0,0,1-4.569-1.467,11.734,11.734,0,0,0-.495-2.246,7.737,7.737,0,0,0-1.185-2.249l-.013-.016-.037-.047-.009-.012-.013-.017a5.63,5.63,0,0,0-3.336-1.986l-.257-.052-.065-.012c-.089-.017-.181-.033-.277-.049l-.015,0-.287-.045-.075-.011-.32-.044-.026,0-.322-.039-.079-.009-.075-.009.019-.042c.051-.115.1-.229.155-.339,1.851-3.9,3.8-3.9,4.443-3.9.076,0,.148,0,.222,0a10.989,10.989,0,0,1,1.918,1,.88.88,0,0,0,.977-.008c.216-.148.441-.291.672-.432l.144-.087.217-.127.14-.08c.087-.049.176-.1.265-.145l.1-.058.352-.182.161-.08.223-.109.179-.084.224-.1.175-.079c.1-.043.194-.085.292-.126l.1-.044a.878.878,0,1,0-.677-1.62c-.2.085-.4.173-.6.262l-.093.042c-.2.089-.388.18-.577.273l-.041.02c-.177.088-.351.178-.523.269l-.086.045c-.176.1-.349.191-.519.289l-.033.019a7.727,7.727,0,0,0-2.853-.608c-.133,0-.251-.008-.366-.008a5.171,5.171,0,0,0-1.772.3c-1.679.6-3.082,2.125-4.257,4.6-.066.141-.132.285-.2.431l-.008.019c-.044.1-.087.2-.13.3l-.014.034-.009.02c-.034.082-.066.163-.1.244-.022.056-.045.11-.066.166l-.01.025c-.046.117-.09.234-.133.351h0v0h0a23.841,23.841,0,0,0-.845,2.861l-.014.062-.021.09-.009.045c-.019.082-.036.162-.052.238l-.01.05c-.018.084-.034.164-.049.239l-.025.13-.019.1c-.024.133-.043.243-.057.326l-.01.061q-.014.089-.018.116l0,.011a2.633,2.633,0,0,1-2.6,2.28,2.6,2.6,0,0,1-.353-.024,2.635,2.635,0,0,1-2.259-2.959l0-.022v0h0a27.113,27.113,0,0,1,.719-3.288q.3-1.077.668-2.079v0c.057-.157.116-.312.176-.466l.015-.041c.059-.152.119-.3.18-.45l.03-.072c.05-.12.1-.239.152-.357l.048-.11q.093-.212.188-.417c.061-.13.122-.258.185-.386l.088-.176c.032-.065.065-.131.1-.195s.079-.151.118-.226l.071-.133c.045-.084.091-.167.137-.25l.056-.1c.05-.087.1-.174.151-.261l.046-.079c.054-.089.107-.178.161-.266l.041-.065q.084-.137.171-.269l.031-.048c.061-.094.123-.187.185-.278a14.076,14.076,0,0,1,2.243-2.594.88.88,0,0,0,.256-.908l-1.408-4.674a1.338,1.338,0,0,1,2.562-.772l1.089,3.617a.88.88,0,0,0,1.131.576,10.392,10.392,0,0,1,1.4-.382.877.877,0,0,0,.708-.861v-3.169a1.338,1.338,0,0,1,2.676,0v3.112a.878.878,0,0,0,.75.869,13.136,13.136,0,0,1,1.468.3.878.878,0,0,0,1.067-.6l1.045-3.469a1.338,1.338,0,1,1,2.562.772l-1.223,4.063a.878.878,0,0,0,.342.975,12.466,12.466,0,0,1,1.615,1.334l-.016.005-.338.1a.878.878,0,1,0,.491,1.686c.129-.038.26-.075.393-.112l.044-.012c.269-.074.543-.145.819-.212l.017,0,.407-.1a30.29,30.29,0,0,1,4.185-.673,2.63,2.63,0,0,1,.413,5.244C975.073,5801.02,974.593,5801.077,974.014,5801.169Z" fill="#78c53c"/></g></g><g id="Group_325" data-name="Group 325"><g id="Group_324" data-name="Group 324"><path id="Path_362" data-name="Path 362" d="M980.632,5834.59a.878.878,0,0,0-1.056.653c-1.018,4.309-4.059,6.685-9.57,7.477-10.684,1.536-23.155-9.839-26.756-20.65a.878.878,0,0,0-1.666.554,36.329,36.329,0,0,0,11.339,15.806c4.97,4.039,10.247,6.185,15.1,6.185a15.731,15.731,0,0,0,2.234-.157,14.812,14.812,0,0,0,7.7-3.115,10.517,10.517,0,0,0,3.328-5.7A.877.877,0,0,0,980.632,5834.59Z" fill="#78c53c"/></g></g></g></svg>