<svg xmlns="http://www.w3.org/2000/svg" viewBox="0 0 33.67 27"><defs><style>.cls-1{fill:none;stroke:#fff;stroke-linecap:round;stroke-miterlimit:10;}</style></defs><g id="Layer_2" data-name="Layer 2"><g id="Design"><g id="icon"><path class="cls-1" d="M3,11.05,1.6,13a1.2,1.2,0,0,0-.22.68v6.15A1.16,1.16,0,0,0,2.55,21H16.77"/><path class="cls-1" d="M16.77.5H8.51a1.18,1.18,0,0,0-1,.61l-2.7,5"/><path class="cls-1" d="M30.54,11.05,32,13a1.19,1.19,0,0,1,.21.68v6.15A1.16,1.16,0,0,1,31,21H16.77"/><path class="cls-1" d="M16.77.5H25a1.16,1.16,0,0,1,1,.61L28.9,6.39"/><path class="cls-1" d="M.5,6.15H4.19a1.16,1.16,0,0,1,.94.47L7,9.11a1.16,1.16,0,0,0,.93.46H26a1.16,1.16,0,0,0,.94-.47l1.64-2.23a1.17,1.17,0,0,1,.94-.48h3.68"/><line class="cls-1" x1="6.51" y1="15.89" x2="8.22" y2="15.89"/><line class="cls-1" x1="25.32" y1="15.89" x2="27.03" y2="15.89"/><path class="cls-1" d="M9.08,23.08h0c0,1.88-1.16,3.42-2.57,3.42H4.8c-1.41,0-2.56-1.54-2.56-3.42h0"/><path class="cls-1" d="M31.31,23.08h0c0,1.88-1.16,3.42-2.57,3.42H27c-1.41,0-2.56-1.54-2.56-3.42h0"/></g></g></g></svg>