<svg xmlns="http://www.w3.org/2000/svg" viewBox="0 0 36.21 50"><defs><style>.cls-1{fill:#78c53c;}</style></defs><g id="Layer_2" data-name="Layer 2"><g id="Design"><path class="cls-1" d="M18.36,39.23a18.73,18.73,0,0,1-4.77-4.64h1.87a.73.73,0,0,0,0-1.46h-2.8a17.86,17.86,0,0,1-1.12-2.32,14.91,14.91,0,0,1-1.06-4.53.73.73,0,0,0-1.46,0,15.47,15.47,0,0,0,.89,4.3A26.63,26.63,0,0,0,9,35a.73.73,0,0,0,.63.82h.09a.73.73,0,0,0,.73-.64c0-.46.19-1.38.37-2.3.21.43.45.87.72,1.33l.08.12a19.35,19.35,0,0,0,2.46,3.23,12.76,12.76,0,0,0,.05,3.25.73.73,0,0,0,.71.57.41.41,0,0,0,.16,0,.72.72,0,0,0,.56-.87,6.94,6.94,0,0,1-.09-1.59,20.91,20.91,0,0,0,2,1.57.71.71,0,0,0,.41.13.72.72,0,0,0,.61-.32A.74.74,0,0,0,18.36,39.23Z"/><path class="cls-1" d="M35.31,31.24c-.09-.55-.18-1.07-.27-1.6-.12-.72-.21-1.31-.27-1.84a15.44,15.44,0,0,1-.16-3.24c.37-4.73-1.24-7.71-3-9.53a3.66,3.66,0,0,0-1.09-7.21,26.22,26.22,0,0,0-3.25.49,12.36,12.36,0,0,0-1.72-1.6l.87-2.88A2.57,2.57,0,0,0,24.66.61a2.57,2.57,0,0,0-3.21,1.73l-.68,2.23H20.7v-2a2.58,2.58,0,1,0-5.15,0V4.64H15.5l-.7-2.31a2.58,2.58,0,0,0-4.74-.48,2.65,2.65,0,0,0-.2,2l1.05,3.45A12.65,12.65,0,0,0,9.38,9.06C6.53,9,4,9.08,3.54,9.1a3.66,3.66,0,0,0,.11,7.31h.12l1.1,0a15.75,15.75,0,0,0-3,9.79s0,.08,0,.13v.13a15.19,15.19,0,0,0,.32,3,.73.73,0,1,0,1.43-.29,13.73,13.73,0,0,1-.28-2.72c0-.06,0-.13,0-.2v-.1A14.22,14.22,0,0,1,6,17.31c-.12.61-.17,1-.18,1.08A3.66,3.66,0,0,0,9,22.5a3.87,3.87,0,0,0,.48,0,3.66,3.66,0,0,0,3.62-3.16v0h0v0h0v0h0v-.09h0v-.06h0a.78.78,0,0,1,0-.14v-.48l0-.07v-.15l0-.11v0l0-.08V18l0-.06v-.06l0-.07,0-.06v-.07l0-.07,0-.06,0-.07,0-.07,0-.07,0-.07,0-.07,0-.07,0-.07,0-.09a.93.93,0,0,1,0-.13l0-.07,0-.08v0h.19l.2,0h.09l.25,0h0l.25,0,.08,0,.16,0h.08l.15,0h.07l.19,0A3.28,3.28,0,0,1,17.41,18h0l.06.06.11.15.06.09,0,.07a5.48,5.48,0,0,1,.54,1.14,8.24,8.24,0,0,1,.34,1.58A3.7,3.7,0,0,0,22,24.28h.79l.09,0,.1,0,.09,0,.1,0,.09,0,.1,0,.08,0,.1,0,.08,0,.1-.05.08,0,.09-.05.08,0,.1-.06.07,0,.09-.06.07-.05.09-.06.07,0,.09-.08.06-.05.1-.09.05,0,.13-.14a3.62,3.62,0,0,0,.95-2.95c-.06-.44-.14-.88-.23-1.3A15.52,15.52,0,0,1,27.75,22c-.11.91-1.39,2.38-2.32,3.17a.73.73,0,1,0,1,1.11,14.36,14.36,0,0,0,1.39-1.41,9.08,9.08,0,0,0,.76-1,13.19,13.19,0,0,1,.69,5.43.73.73,0,0,0,.67.79H30a.74.74,0,0,0,.73-.67,16.21,16.21,0,0,0,0-2.09,3.3,3.3,0,0,1,.59.55.73.73,0,0,0,.6.3A.72.72,0,0,0,32.49,27a10.12,10.12,0,0,0-2-1.71,15.39,15.39,0,0,0-1.28-3.73l-.06-.11a17,17,0,0,0-3.73-4.89,18,18,0,0,1,3.19-1l.14,0h0l.94-.19c2.59,2,3.79,5.19,3.48,9.16A17.65,17.65,0,0,0,33.32,28c.07.54.16,1.15.28,1.89.08.53.17,1.05.27,1.61a40.75,40.75,0,0,1,.86,8.37.72.72,0,0,0,.7.76h0a.74.74,0,0,0,.73-.7A41.21,41.21,0,0,0,35.31,31.24ZM7,13.65H7a2.09,2.09,0,0,0-.08.23l0,.1c0,.07-.05.15-.08.23v0c-.06.17-.11.34-.17.51h0a.36.36,0,0,1,0,.11H6.52c-1,0-2,0-2.8,0a2.19,2.19,0,1,1-.13-4.38c.35,0,1.79-.05,3.65-.05H8.45c-.19.33-.36.66-.53,1h0c0,.11-.11.23-.16.35l-.15.32a.61.61,0,0,0,0,.12l-.09.21-.07.15-.07.18a1.22,1.22,0,0,1-.07.17l-.06.16C7.13,13.34,7.07,13.5,7,13.65Zm22.76.14h0a20.88,20.88,0,0,0-5.08,1.45h0l-.2.09-.06,0-.17.09-.07,0-.16.09-.07,0-.21.13h0l0,0,0,0,0,0,0,0,0,0,0,0h0l0,0h0a.08.08,0,0,1,0,0v0l0,0,0,0v.09a.17.17,0,0,0,0,.07,0,0,0,0,0,0,0v.07h0v.24l0,0v0h0c.16.37.3.75.43,1.13a14.59,14.59,0,0,1,.57,2.55,1.93,1.93,0,0,1,0,.24,2.12,2.12,0,0,1-.58,1.52A2.2,2.2,0,0,1,20,20.89,9,9,0,0,0,19.6,19a6.32,6.32,0,0,0-1-1.88h0l0,0h0a4.65,4.65,0,0,0-2.78-1.66l-.21,0h-.05l-.24,0h0l-.24,0H15l-.27,0h0l-.27,0h-.13l0,0c0-.1.09-.19.13-.29,1.54-3.24,3.17-3.24,3.7-3.24h.19a9.68,9.68,0,0,1,1.6.83.72.72,0,0,0,.81,0,6.65,6.65,0,0,1,.56-.36L21.4,12l.18-.1.12-.07.22-.12.09-.05.29-.15.13-.07.19-.09.15-.07.18-.08.15-.07.24-.1.09,0a.74.74,0,0,0,.45-.74.9.9,0,0,0-.06-.22.74.74,0,0,0-1-.39l-.5.22-.07,0-.48.23,0,0-.43.22-.07,0-.44.24,0,0a6.38,6.38,0,0,0-2.37-.51h-.31a4.21,4.21,0,0,0-1.47.26c-1.4.5-2.57,1.77-3.55,3.83-.06.11-.11.23-.17.35v0c0,.08-.07.17-.11.25v.05c0,.06-.05.13-.08.2l-.06.14v0c0,.1-.07.19-.11.29h0a19.42,19.42,0,0,0-.7,2.38V18l0,.08v0c0,.07,0,.14,0,.2v0a1.77,1.77,0,0,0,0,.2l0,.11,0,.08a2.71,2.71,0,0,1-.05.27v.06a.81.81,0,0,0,0,.09h0a2.2,2.2,0,0,1-2.17,1.9l-.29,0a2.19,2.19,0,0,1-1.88-2.46v0h0a22.18,22.18,0,0,1,.6-2.74c.17-.6.35-1.17.55-1.73h0c0-.13.09-.26.14-.39v0l.15-.38,0-.06c0-.1.08-.2.13-.3l0-.09.15-.35c0-.1.1-.21.16-.32s0-.1.07-.14l.08-.17c0-.06.07-.12.1-.19l.06-.11.11-.2,0-.09.13-.22,0-.06.14-.22,0-.06.14-.22,0,0a1.88,1.88,0,0,1,.16-.23,11.32,11.32,0,0,1,1.86-2.16.73.73,0,0,0,.22-.76L11.26,3.4A1.12,1.12,0,0,1,12,2a1.12,1.12,0,0,1,1.39.75l.91,3a.72.72,0,0,0,.37.45.71.71,0,0,0,.57,0,7.75,7.75,0,0,1,1.17-.31A.74.74,0,0,0,17,5.22V2.58a1.12,1.12,0,1,1,2.23,0V5.17a.74.74,0,0,0,.62.73,9.92,9.92,0,0,1,1.23.25.74.74,0,0,0,.89-.5l.87-2.89a1.07,1.07,0,0,1,.54-.66A1.14,1.14,0,0,1,24.24,2a1.17,1.17,0,0,1,.66.54A1.1,1.1,0,0,1,25,3.4L24,6.79a.74.74,0,0,0,.29.81,10.81,10.81,0,0,1,1.34,1.11h0l-.28.08a.73.73,0,0,0-.5.9.71.71,0,0,0,.13.26.74.74,0,0,0,.78.24l.32-.09h0l.68-.18h0l.34-.08a24.54,24.54,0,0,1,3.48-.56,2.19,2.19,0,1,1,.35,4.37C30.67,13.67,30.27,13.72,29.78,13.79Z"/><path class="cls-1" d="M35.3,41.65a.73.73,0,0,0-.88.54c-.85,3.59-3.38,5.57-8,6.23-8.9,1.28-19.29-8.2-22.29-17.21a.73.73,0,0,0-1.39.46,30.28,30.28,0,0,0,9.45,13.18C16.35,48.21,20.75,50,24.79,50a12.73,12.73,0,0,0,1.86-.13,12.34,12.34,0,0,0,6.42-2.6,8.71,8.71,0,0,0,2.77-4.74A.72.72,0,0,0,35.3,41.65Z"/></g></g></svg>