<svg xmlns="http://www.w3.org/2000/svg" viewBox="0 0 41.02 50"><defs><style>.cls-1{fill:#78c53c;}</style></defs><g id="Layer_2" data-name="Layer 2"><g id="Design"><path class="cls-1" d="M36.62,44.87a.74.74,0,1,0,.73.74A.74.74,0,0,0,36.62,44.87Zm2.2-3.07V37.57a7.53,7.53,0,0,0-1.23-4.12.74.74,0,0,0-1-.21.75.75,0,0,0-.21,1,6,6,0,0,1,1,3.31v3.7a4.32,4.32,0,0,0-.73-.06,4.4,4.4,0,0,0-.73.06v-3.7a4.61,4.61,0,0,0-9.21,0V41.8a6.07,6.07,0,1,1-12.13,0V39.62a2.26,2.26,0,0,0,.74.13,2.29,2.29,0,0,0,.73-.13V41.8a4.6,4.6,0,1,0,9.2,0V37.57a6.07,6.07,0,0,1,8.92-5.35.73.73,0,1,0,.69-1.29,7.53,7.53,0,0,0-11.08,6.64V41.8a3.14,3.14,0,1,1-6.27,0v-10A15.29,15.29,0,0,0,30.57,16.67,2.23,2.23,0,0,0,29.1,14.6v-7a5.56,5.56,0,0,0-4.05-5.36A2.75,2.75,0,0,0,22.36,0H20.9a2.74,2.74,0,1,0,0,5.47h1.46a2.75,2.75,0,0,0,2.56-1.76,4.09,4.09,0,0,1,2.72,3.86v7a2.25,2.25,0,0,0-1.47,2.11,10.88,10.88,0,0,1-17.8,8.37.73.73,0,0,0-1,.1.74.74,0,0,0,.1,1,12.35,12.35,0,0,0,20.2-9.5.76.76,0,0,1,.69-.77.74.74,0,0,1,.77.73A13.81,13.81,0,0,1,16.92,30.39a1,1,0,0,0-.9,1v6.14a.74.74,0,0,1-.77.73.76.76,0,0,1-.7-.77v-6.1a1,1,0,0,0-.91-1A13.82,13.82,0,0,1,1.46,16.67a.75.75,0,0,1,.78-.73.76.76,0,0,1,.69.77A12.31,12.31,0,0,0,5,23.57a.73.73,0,0,0,1.21-.82,10.84,10.84,0,0,1-1.86-6A2.24,2.24,0,0,0,2.93,14.6v-7A4.09,4.09,0,0,1,5.65,3.71,2.75,2.75,0,0,0,8.2,5.47H9.67A2.74,2.74,0,0,0,9.67,0H8.2A2.73,2.73,0,0,0,5.52,2.21,5.57,5.57,0,0,0,1.46,7.57v7A2.22,2.22,0,0,0,0,16.67,15.29,15.29,0,0,0,13.09,31.8v10a7.53,7.53,0,1,0,15.06,0V37.57a3.14,3.14,0,0,1,6.27,0V41.8a4.4,4.4,0,1,0,4.4,0ZM22.36,4H20.9a1.27,1.27,0,1,1,0-2.54h1.46a1.27,1.27,0,0,1,0,2.54ZM8.2,1.46H9.67A1.27,1.27,0,0,1,9.67,4H8.2a1.27,1.27,0,1,1,0-2.54ZM36.62,48.54a2.93,2.93,0,1,1,2.93-2.93A2.94,2.94,0,0,1,36.62,48.54Z"/></g></g></svg>