<svg xmlns="http://www.w3.org/2000/svg" width="70.926" height="69.999" viewBox="0 0 70.926 69.999">
  <g id="icon3" transform="translate(-1334.538 -5780.616)">
    <path id="Path_391" data-name="Path 391" d="M1405.257,5838.079a3.6,3.6,0,0,0-4.583-2.169l-2.055.739a7.621,7.621,0,0,0,1.1-1.985,6.649,6.649,0,0,0-.162-5.153c-1.647-3.538-6.19-4.969-10.125-3.186a8.178,8.178,0,0,0-4.319,4.524,6.641,6.641,0,0,0-.435,2.108,9.735,9.735,0,0,0-2.132-1.329,19.553,19.553,0,0,0-8.809-1.484,91.282,91.282,0,0,0-10.28.942v-8.96a3.027,3.027,0,0,0-.838-2.1,2.837,2.837,0,0,0-.723-.547,6.542,6.542,0,0,1,3.543-1.5,9.162,9.162,0,0,1,5.845,1.422q.414.256.811.486v6.693a.718.718,0,0,0,1.435,0v-5.95a8.154,8.154,0,0,0,3.412.806,9.039,9.039,0,0,0,3.446-.747c3.222-1.314,4.042-4.548,4.246-5.977h20.08a.719.719,0,0,0,.718-.718v-7.559a.718.718,0,0,0-.718-.718h-7.127v-.252a2.566,2.566,0,0,0-2.564-2.564h-1.495v-1.766h11.186a.719.719,0,0,0,.718-.718v-19.082a.718.718,0,0,0-.718-.717h-27.525a.718.718,0,0,0-.718.717v19.082a.719.719,0,0,0,.718.718h11.186v1.766h-1.5a2.565,2.565,0,0,0-2.564,2.564v.252h-7.126a.718.718,0,0,0-.718.718v7.559a.719.719,0,0,0,.718.718h5.984a5.956,5.956,0,0,1-3.327,4.647,6.685,6.685,0,0,1-6.316-.312v-1.49a7.321,7.321,0,0,0-7.355-7.27h-1.322a6.759,6.759,0,0,0,2.65-5.279c0-.022.006-.043.006-.065v-3.03a5.934,5.934,0,0,0-.11-1.131.084.084,0,0,0,0-.017l-.345-7.6c-.042-1.873-4.978-2.018-6.51-2.018s-6.511.146-6.511,2.039v.062l-.34,7.384a5.916,5.916,0,0,0-.141,1.278v3.031l0,.022a6.772,6.772,0,0,0,2.658,5.321H1352.9a5.5,5.5,0,0,0-.837.065l-.022,0-.086.017a5.351,5.351,0,0,0-1.857.7c-.069.04-.138.081-.206.124l-.019.014-9.691,6.948-2.751,1.973-.692.5,0,0h0a4.679,4.679,0,0,0-.743.577,4.6,4.6,0,0,0-.136,6.5,4.671,4.671,0,0,0,3.256,1.446l13.718.9.024,0,3.215.151h.149a3.088,3.088,0,0,0,1.46-.358v2.081c-.2.026-.4.053-.6.078h-.008l-21.912,2.958a.718.718,0,1,0,.193,1.423l21.1-2.85v3.163l-12.662.317h-.024a4,4,0,0,0-2.77,1.339,3.916,3.916,0,0,0-.993,2.854,3.978,3.978,0,0,0,.917,2.3h-5.637a.708.708,0,0,0-.144.015.717.717,0,0,0-.572.7.683.683,0,0,0,.015.144.725.725,0,0,0,.108.257.789.789,0,0,0,.088.106.72.72,0,0,0,.508.209h8.521c.065,0,.13.005.2,0,.031,0,.061,0,.092,0h35.574a.711.711,0,0,0,.243-.043l1.554-.558.1-.038.37-.133,17.383-6.25,1.829-.658a2.167,2.167,0,0,1,2.753,1.3,2.075,2.075,0,0,1-.085,1.6,2.123,2.123,0,0,1-1.231,1.094l-1.151.4-12.364,4.294-7.134,2.473-2.176.754h-44.479a.718.718,0,0,0,0,1.435h44.6a.716.716,0,0,0,.242-.037l1.812-.629,7.608-2.642,11.89-4.129,1.625-.564a3.548,3.548,0,0,0,2.055-1.83A3.5,3.5,0,0,0,1405.257,5838.079Zm-27.346-38.382v-17.646H1404V5799.7Zm14.186,1.436v1.762h-2.286v-1.762Zm-6.343,4.326a1.131,1.131,0,0,1,1.129-1.129h8.145a1.131,1.131,0,0,1,1.129,1.129v.256h-10.4Zm-7.843,7.815v-6.124H1404v6.124Zm8.552,18.074a6.744,6.744,0,0,1,3.566-3.715c3.222-1.455,6.914-.338,8.231,2.493a5.229,5.229,0,0,1,.118,4.049,6.744,6.744,0,0,1-3.566,3.715l-.074.032a6.782,6.782,0,0,1-5.6,0,5.141,5.141,0,0,1-2.67-6.574Zm-12.664.231a18.133,18.133,0,0,1,8.154,1.351c1.925.893,3.137,2.164,3.414,3.577a4.234,4.234,0,0,1,.026,1.415,5.945,5.945,0,0,1-1.354,2.926,7.17,7.17,0,0,1-2.1,1.711,7.444,7.444,0,0,1-.9.413l-.262.095a8.674,8.674,0,0,1-2.8.441h-5.507l7.161-1.071a.718.718,0,1,0-.212-1.42l-16.6,2.491h-4.924l0-5.4,4.688-.117c.03,0,.06,0,.09-.008l11.565-1.762a.718.718,0,1,0-.216-1.42l-11.529,1.751-4.6.115,0-3.314c1.249-.165,2.455-.346,3.625-.522l1.275-.191a.7.7,0,0,0,.12-.018A91.892,91.892,0,0,1,1373.8,5831.579Zm-11.773-9.453v.857a2.645,2.645,0,0,0-.493-.191l-1.882-.511a5.46,5.46,0,0,0-.538-.115v-.038a1.5,1.5,0,0,1,1.455-1.551,1.411,1.411,0,0,1,1.019.441A1.6,1.6,0,0,1,1362.026,5822.126Zm-3.961-13.827h4.943v1.452a5.42,5.42,0,0,1-2.3.534h-.356a5.423,5.423,0,0,1-2.29-.531Zm2.254,3.421.11,0h.213l.11,0h1.725l-1.917,3.111-1.951-3.111Zm-5.323-7.387-.005-2.422v-.007a16.235,16.235,0,0,0,5.2.705,19.752,19.752,0,0,0,5.883-.8c0,.033,0,.065,0,.1v2.422l-5.541.921h0Zm.461-10.987c.429-.287,2.2-.763,5.075-.763s4.661.48,5.076.767l.2,4.4.117,2.586c-.037.015-.078.029-.116.043-2.91,1.1-8.637,1.007-10.577.081l-.1-.045.12-2.661Zm-.392,12.455h0l5.352.889a.709.709,0,0,0,.236,0l5.35-.889h0a5.42,5.42,0,0,1-1.567,2.954v-1.173a.718.718,0,0,0-.717-.718h-6.373a.718.718,0,0,0-.717.718v1.17A5.408,5.408,0,0,1,1355.065,5805.8Zm-7.517,22.462-4.882-.319-1.858-.121c-1.626-.106-1.637-.106-1.646-.106a3.244,3.244,0,0,1-2.268-1,3.144,3.144,0,0,1-.893-2.279,3.183,3.183,0,0,1,.985-2.2,3.139,3.139,0,0,1,.539-.416l.04-.028.6-.429v0l2.459-1.762,7.021-5.032,2.857-2.047c.079-.061.165-.113.248-.168a4.581,4.581,0,0,1,1.52-.586c.018,0,.034-.01.051-.014a3.929,3.929,0,0,1,.576-.039h4.011l3.043,4.853a.718.718,0,0,0,.608.336v0a.719.719,0,0,0,.608-.341l2.989-4.846h2.022a5.884,5.884,0,0,1,5.92,5.835v.666l-.058-.036a10.6,10.6,0,0,0-6.77-1.628,7.674,7.674,0,0,0-5.076,2.611,2.957,2.957,0,0,0-2.517,2.947c-.169.016-.338.038-.506.069l-1.737.329-1.636-.226a.161.161,0,0,0-.029-.008l-1.37-.236,1.446-.877a.717.717,0,1,0-.744-1.227l-2.859,1.733-1.259-.217-1.436-.247-3.312-.57a.722.722,0,1,0-.25,1.422l3.562.612.814.14.622.107,1.536.264,2.329.4-.594,4.987-3.271-.213Zm9.839.065-.268.17a1.677,1.677,0,0,1-.985.268l-2.438-.115.58-4.868,1.083.151a.705.705,0,0,0,.231,0l1.852-.351c.078-.014.157-.026.235-.036a4.094,4.094,0,0,1,1.436.069c.055.012.11.025.164.04l1.882.511a1.167,1.167,0,0,1,.867,1.09v1.981a.678.678,0,0,1-.208.476.714.714,0,0,1-.524.2l-2.13-.07h-.051a3.106,3.106,0,0,0-1.436.322A3,3,0,0,0,1357.387,5828.328Zm1.726.964h0l2.131.071a2.164,2.164,0,0,0,.781-.12v2.054l-.726.109q-1.074.161-2.187.323Zm-17.678,11.837a2.494,2.494,0,0,1,.633-1.815,2.574,2.574,0,0,1,1.776-.86l12.607-.315v5.37h-12.619A2.557,2.557,0,0,1,1341.435,5841.129Zm43.995.263a7.352,7.352,0,0,0,1.379-3.316,7.258,7.258,0,0,0,3.208,1.666Z" fill="#78c53c"/>
    <path id="Path_392" data-name="Path 392" d="M1338.411,5821.78l-.244-.412-.025.019Z" fill="#78c53c"/>
  </g>
</svg>
