<svg xmlns="http://www.w3.org/2000/svg" width="59.999" height="60.001" viewBox="0 0 59.999 60.001">
  <g id="icon7" transform="translate(-520.985 -6609.221)">
    <g id="Group_328" data-name="Group 328">
      <g id="Group_327" data-name="Group 327">
        <path id="Path_378" data-name="Path 378" d="M575.643,6622.125a1.172,1.172,0,0,0-1.924,1.338,27.657,27.657,0,1,1-6.795-6.849,1.171,1.171,0,1,0,1.353-1.913,29.986,29.986,0,1,0,7.366,7.424Z" fill="#78c53c"/>
      </g>
    </g>
    <g id="Group_330" data-name="Group 330">
      <g id="Group_329" data-name="Group 329">
        <path id="Path_379" data-name="Path 379" d="M572.211,6618.02l-.023-.022a1.172,1.172,0,0,0-1.659,1.655l.022.022a1.172,1.172,0,0,0,1.66-1.655Z" fill="#78c53c"/>
      </g>
    </g>
    <g id="Group_332" data-name="Group 332">
      <g id="Group_331" data-name="Group 331">
        <path id="Path_380" data-name="Path 380" d="M565.115,6628.628h-9.971a2.044,2.044,0,0,1-2.042-2.042,1.172,1.172,0,0,0-2.344,0,4.392,4.392,0,0,0,4.386,4.386h9.971a2.044,2.044,0,0,1,2.042,2.042v.543a1.172,1.172,0,0,0,2.344,0v-.543A4.392,4.392,0,0,0,565.115,6628.628Z" fill="#78c53c"/>
      </g>
    </g>
    <g id="Group_334" data-name="Group 334">
      <g id="Group_333" data-name="Group 333">
        <path id="Path_381" data-name="Path 381" d="M566.112,6656.668,533.538,6624.1a1.17,1.17,0,0,0-1.751.1,24.376,24.376,0,0,0,34.219,34.219,1.172,1.172,0,0,0,.106-1.751Zm-22.981-18.384h1.282l4.219,4.219h-5.5Zm7.87,22.97a22.035,22.035,0,0,1-18.157-34.539l9.225,9.225h-8.428a1.172,1.172,0,0,0-1.172,1.172v6.563a1.172,1.172,0,0,0,1.172,1.171h17.334l12.516,12.517A21.918,21.918,0,0,1,551,6661.254Zm-10.214-22.97v4.219h-5.974v-4.219Z" fill="#78c53c"/>
      </g>
    </g>
    <g id="Group_336" data-name="Group 336">
      <g id="Group_335" data-name="Group 335">
        <path id="Path_382" data-name="Path 382" d="M544.369,6626.97a1.172,1.172,0,1,0,.343.829A1.179,1.179,0,0,0,544.369,6626.97Z" fill="#78c53c"/>
      </g>
    </g>
    <g id="Group_338" data-name="Group 338">
      <g id="Group_337" data-name="Group 337">
        <path id="Path_383" data-name="Path 383" d="M568.221,6621.986a24.378,24.378,0,0,0-32.257-1.962,1.171,1.171,0,0,0-.106,1.75l4.114,4.114a1.172,1.172,0,1,0,1.657-1.657l-3.15-3.151a22.035,22.035,0,0,1,30.647,30.648l-6.881-6.881h6.084a1.173,1.173,0,0,0,1.172-1.172v-6.563a1.172,1.172,0,0,0-1.172-1.172H553.368l-.028,0-6.173-6.174a1.172,1.172,0,0,0-1.658,1.658l22.923,22.922a1.17,1.17,0,0,0,.829.343c.023,0,.047,0,.07,0a1.171,1.171,0,0,0,.852-.446A24.378,24.378,0,0,0,568.221,6621.986Zm-3.527,16.3h2.463v4.219h-2.463Zm-9.012,0h6.668v4.219H559.9Z" fill="#78c53c"/>
      </g>
    </g>
  </g>
</svg>
