<svg xmlns="http://www.w3.org/2000/svg" viewBox="0 0 20.05 33"><defs><style>.cls-1,.cls-2{fill:none;stroke:#fff;stroke-linecap:round;stroke-miterlimit:10;}.cls-2{stroke-width:0.5px;}</style></defs><g id="Layer_2" data-name="Layer 2"><g id="Design"><path class="cls-1" d="M4.31.5H16.7a2.86,2.86,0,0,1,2.85,2.86V29.64A2.86,2.86,0,0,1,16.7,32.5H3.36A2.86,2.86,0,0,1,.5,29.64V3.36A2.86,2.86,0,0,1,3.36.5h.95"/><path class="cls-1" d="M15.74.5,14.05,3.78a1,1,0,0,1-.88.53H6.89A1,1,0,0,1,6,3.78L4.31.5"/><path class="cls-2" d="M14.74,14.13a5.72,5.72,0,1,1-1.47-1.47"/><polyline class="cls-2" points="9.99 15.14 9.99 17.27 11.03 18.31"/><line class="cls-2" x1="9.99" y1="13.12" x2="9.99" y2="13.12"/><line class="cls-2" x1="14.06" y1="13.33" x2="14.06" y2="13.33"/><line class="cls-2" x1="9.99" y1="21.43" x2="9.99" y2="21.43"/><line class="cls-2" x1="14.15" y1="17.27" x2="14.15" y2="17.27"/><line class="cls-2" x1="5.83" y1="17.27" x2="5.83" y2="17.27"/></g></g></svg>