<svg xmlns="http://www.w3.org/2000/svg" viewBox="0 0 27 27"><defs><style>.cls-1{fill:none;stroke:#fff;stroke-linecap:round;stroke-miterlimit:10;}</style></defs><g id="Layer_2" data-name="Layer 2"><g id="Design"><path class="cls-1" d="M20.62,26.5a9.54,9.54,0,0,1-4.39-1.2,28.43,28.43,0,0,1-8.36-6.16A28.65,28.65,0,0,1,1.7,10.77c-2.61-5-.26-8,.52-8.75l.86-.87A2.05,2.05,0,0,1,4.51.5,2,2,0,0,1,6,1.26a41,41,0,0,1,3,4.32A2.71,2.71,0,0,1,8.66,9L7,10.64A24.49,24.49,0,0,0,11,16a24.18,24.18,0,0,0,5.33,4L18,18.34a2.73,2.73,0,0,1,3.39-.41,42,42,0,0,1,4.31,3,2.05,2.05,0,0,1,.76,1.47,2,2,0,0,1-.65,1.48l-.86.86a6.14,6.14,0,0,1-4.36,1.72Z"/></g></g></svg>