<svg xmlns="http://www.w3.org/2000/svg" width="70" height="70" viewBox="0 0 70 70">
  <path id="Path_385" data-name="Path 385" d="M994.7,6604.522a1.027,1.027,0,0,0-1.451,0l-10.1,10.1a2.918,2.918,0,0,0-2.517.046,19.719,19.719,0,0,0-5.477,4.079l-.242-.242a3.761,3.761,0,0,0-5.32,0l-3.35,3.35a1.025,1.025,0,0,0,1.45,1.45l3.35-3.35a1.712,1.712,0,0,1,2.419,0l5.8,5.8a1.713,1.713,0,0,1,0,2.42l-1.016,1.016-3.1-3.1a1.025,1.025,0,0,0-1.45,1.45l3.1,3.1-1.548,1.549-2.129-2.129a1.025,1.025,0,1,0-1.45,1.45l2.128,2.129-1.548,1.549-3.1-3.1a1.026,1.026,0,0,0-1.451,1.45l3.1,3.1-1.548,1.549-2.129-2.129a1.025,1.025,0,0,0-1.45,1.45l2.128,2.129-1.548,1.549-3.1-3.1a1.025,1.025,0,1,0-1.45,1.45l3.1,3.1-1.84,1.839-2.612-2.613a1.026,1.026,0,1,0-1.45,1.451l2.612,2.612-1.549,1.549-8.224-8.224,1.549-1.549,2.147,2.147a1.026,1.026,0,1,0,1.45-1.451l-2.146-2.146,9.567-9.568a1.025,1.025,0,0,0-1.45-1.45L944.2,6643.9l-1.935-1.936a3.146,3.146,0,0,0-4.449,4.45l5.031,5.031-3.86,3.859a1.026,1.026,0,0,0,1.451,1.451l3.859-3.86,2.129,2.129-9.384,9.385-2.13-2.129,2.142-2.142a1.025,1.025,0,0,0-1.45-1.45l-2.142,2.142-3.1-3.1a3.146,3.146,0,0,0-4.449,4.449l11.125,11.125a3.146,3.146,0,1,0,4.449-4.449l-3-3,9.385-9.384.94.94a1.025,1.025,0,0,0,1.45-1.45l-11-11a1.095,1.095,0,0,1,1.549-1.548l14.995,15a1.1,1.1,0,0,1-1.549,1.549l-.61-.61a1.025,1.025,0,0,0-1.45,1.45l.61.61a3.146,3.146,0,1,0,4.449-4.449l-1.935-1.936c7.34-7.339,18.034-18.033,25.4-25.4a3.761,3.761,0,0,0,0-5.32l-.242-.242a19.734,19.734,0,0,0,4.079-5.477,2.913,2.913,0,0,0,.045-2.517l10.1-10.1a1.026,1.026,0,0,0,0-1.45Zm-54.66,67.334a1.1,1.1,0,0,1-1.549,0l-11.126-11.125a1.1,1.1,0,0,1,1.549-1.549l11.126,11.126A1.1,1.1,0,0,1,940.039,6671.856Zm8.705-23.412,4.645-4.645,2.129,2.13-4.644,4.644Zm8.224-1.065,1.549,1.549-4.644,4.644-1.549-1.548Zm-6.675-6.675,1.645,1.645-4.644,4.645-1.645-1.646Zm32.428-23.033a17.747,17.747,0,0,1-3.7,4.943l-2.42-2.419a17.74,17.74,0,0,1,4.944-3.695.873.873,0,0,1,1.171,1.171Z" transform="translate(-924.999 -6604.222)" fill="#78c53c"/>
</svg>
