<svg xmlns="http://www.w3.org/2000/svg" viewBox="0 0 60.79 60"><defs><style>.cls-1{fill:#78c53c;}</style></defs><g id="Layer_2" data-name="Layer 2"><g id="Design"><path class="cls-1" d="M60.62,49.25a3.09,3.09,0,0,0-3.93-1.86L54.93,48a6.29,6.29,0,0,0,.94-1.7,5.7,5.7,0,0,0-.14-4.42c-1.41-3-5.3-4.26-8.68-2.73a7,7,0,0,0-3.7,3.88,5.89,5.89,0,0,0-.37,1.8,8.78,8.78,0,0,0-1.83-1.14,16.86,16.86,0,0,0-7.55-1.27,77.85,77.85,0,0,0-8.81.81V35.58a2.57,2.57,0,0,0-.72-1.8,2.36,2.36,0,0,0-.62-.47,5.64,5.64,0,0,1,3-1.29,7.89,7.89,0,0,1,5,1.22l.7.42V39.4a.61.61,0,0,0,.61.61.62.62,0,0,0,.62-.61V34.3a6.94,6.94,0,0,0,2.92.69,7.75,7.75,0,0,0,2.95-.64,6.33,6.33,0,0,0,3.64-5.13H60.15a.61.61,0,0,0,.62-.61V22.13a.62.62,0,0,0-.62-.62H54V21.3a2.19,2.19,0,0,0-2.19-2.2H50.57V17.59h9.58a.62.62,0,0,0,.62-.62V.62A.62.62,0,0,0,60.15,0H36.56A.61.61,0,0,0,36,.62V17a.61.61,0,0,0,.61.62h9.59V19.1H44.87a2.19,2.19,0,0,0-2.2,2.2v.21H36.56a.61.61,0,0,0-.61.62v6.48a.61.61,0,0,0,.61.61h5.13a5.13,5.13,0,0,1-2.85,4,5.75,5.75,0,0,1-5.41-.27V31.66a6.28,6.28,0,0,0-6.31-6.23H26a5.8,5.8,0,0,0,2.27-4.52V18.25a5.23,5.23,0,0,0-.09-1h0l-.3-6.51C27.84,9.15,23.61,9,22.29,9s-5.58.12-5.58,1.75v.05l-.29,6.33a4.92,4.92,0,0,0-.12,1.09v2.62a5.78,5.78,0,0,0,2.28,4.56H15.74a4.2,4.2,0,0,0-.72.06h-.09a4.56,4.56,0,0,0-1.59.6l-.18.11h0l-8.3,6L2.48,33.87l-.59.42h0a3.79,3.79,0,0,0-.63.49,3.93,3.93,0,0,0-.12,5.57A4,4,0,0,0,3.92,41.6l11.76.77h0l2.75.13h.13a2.68,2.68,0,0,0,1.25-.3V44l-.51.07h0L.53,46.58a.62.62,0,0,0-.52.69.61.61,0,0,0,.69.53l18.08-2.44v2.71l-10.85.27h0a3.47,3.47,0,0,0-2.38,1.15,3.38,3.38,0,0,0-.85,2.45,3.42,3.42,0,0,0,.79,2h-5A.85.85,0,0,0,.29,54a.69.69,0,0,0-.22.28.59.59,0,0,0,0,.23.51.51,0,0,0,0,.13.47.47,0,0,0,.09.22L.2,55a.65.65,0,0,0,.44.18h38a.52.52,0,0,0,.21,0l1.33-.48.09,0,.32-.11,14.9-5.36,1.57-.56a1.85,1.85,0,0,1,2.36,1.11A1.76,1.76,0,0,1,59.38,51a1.83,1.83,0,0,1-1.05.94l-1,.34L46.75,56l-6.12,2.12-1.87.65H.64a.61.61,0,0,0-.61.61A.61.61,0,0,0,.64,60H38.87a.76.76,0,0,0,.21,0l1.55-.54,6.52-2.27,10.19-3.53,1.4-.49a3.06,3.06,0,0,0,1.76-1.57A3,3,0,0,0,60.62,49.25ZM37.18,16.36V1.23H59.54V16.36Zm12.16,1.23V19.1h-2V17.59Zm-5.44,3.7a1,1,0,0,1,1-1h7a1,1,0,0,1,1,1v.22H43.9ZM37.18,28V22.74H59.54V28Zm7.33,15.49a5.78,5.78,0,0,1,3.05-3.18c2.76-1.25,5.93-.29,7.06,2.14a4.49,4.49,0,0,1,.1,3.47,5.77,5.77,0,0,1-3.06,3.18l-.06,0a5.8,5.8,0,0,1-4.81,0,4.41,4.41,0,0,1-2.28-5.64Zm-10.86.2a15.68,15.68,0,0,1,7,1.16,4.73,4.73,0,0,1,2.93,3.07,3.76,3.76,0,0,1,0,1.21,5.09,5.09,0,0,1-1.16,2.51,6.09,6.09,0,0,1-1.8,1.46,7,7,0,0,1-.78.36l-.22.08a7.41,7.41,0,0,1-2.4.38H32.51L38.65,53a.62.62,0,0,0-.18-1.22L24.23,53.91H20V49.28l4-.11h.07L34,47.66a.62.62,0,0,0-.19-1.22L24,47.94,20,48V45.2c1.07-.14,2.1-.3,3.11-.45l1.09-.16.1,0A81.39,81.39,0,0,1,33.65,43.68Zm-10.09-8.1v.73a2.61,2.61,0,0,0-.42-.16l-1.61-.44-.47-.1v0a1.29,1.29,0,0,1,1.25-1.33,1.19,1.19,0,0,1,.87.38A1.36,1.36,0,0,1,23.56,35.58ZM20.17,23.73H24.4V25a4.67,4.67,0,0,1-2,.46h-.3a4.74,4.74,0,0,1-2-.45Zm1.93,2.93H24L22.3,29.33l-1.67-2.67Zm-4.57-6.33V18.25h0a14.06,14.06,0,0,0,4.46.6,16.8,16.8,0,0,0,5-.68v2.16l-4.75.79h0Zm.4-9.42a10.52,10.52,0,0,1,4.35-.65,10.19,10.19,0,0,1,4.35.66l.17,3.77.1,2.22-.1,0c-2.49.95-7.4.87-9.06.07l-.08,0,.1-2.28Zm-.34,10.68h0l4.59.76h.2L27,21.59h0a4.69,4.69,0,0,1-1.34,2.53v-1A.61.61,0,0,0,25,22.5H19.55a.61.61,0,0,0-.62.61v1A4.73,4.73,0,0,1,17.59,21.59ZM11.15,40.84,7,40.57l-1.6-.11L4,40.37A2.76,2.76,0,0,1,2,39.51a2.68,2.68,0,0,1-.77-1.95,2.77,2.77,0,0,1,.85-1.88,2.28,2.28,0,0,1,.46-.36l0,0,.52-.37h0l2.11-1.51,6-4.31,2.44-1.76.22-.14a3.82,3.82,0,0,1,1.3-.5l0,0a4.07,4.07,0,0,1,.5,0h3.44l2.6,4.16a.63.63,0,0,0,.52.29h0a.62.62,0,0,0,.53-.3l2.56-4.15h1.73a5.05,5.05,0,0,1,5.08,5v.57l-.05,0a9.13,9.13,0,0,0-5.81-1.39A6.62,6.62,0,0,0,22,33a2.56,2.56,0,0,0-2.16,2.53,3.18,3.18,0,0,0-.43.06l-1.49.28-1.4-.19h0l-1.17-.2,1.24-.75a.63.63,0,0,0,.21-.85.62.62,0,0,0-.85-.2l-2.45,1.48L12.38,35l-1.23-.22-2.84-.48a.61.61,0,0,0-.21,1.21l3.05.53.7.12.53.09,1.32.23,2,.34-.5,4.27-2.81-.18Zm8.43.06-.23.14a1.46,1.46,0,0,1-.84.23l-2.09-.1.5-4.17.93.13H18l1.59-.3.2,0a3.63,3.63,0,0,1,1.23.06l.14,0,1.62.44a1,1,0,0,1,.74.93V40a.6.6,0,0,1-.63.58l-1.82-.06h-.05a2.64,2.64,0,0,0-1.23.28Zm1.48.82h0l1.83.06a1.88,1.88,0,0,0,.67-.1v1.76l-.62.09-1.88.28ZM5.91,51.87A2.17,2.17,0,0,1,8,49.58l10.8-.27v4.6H8A2.2,2.2,0,0,1,5.91,51.87Zm37.71.22a6.24,6.24,0,0,0,1.18-2.84,6.27,6.27,0,0,0,2.75,1.43Z"/><polygon class="cls-1" points="3.32 35.28 3.11 34.93 3.09 34.95 3.32 35.28"/></g></g></svg>