<svg xmlns="http://www.w3.org/2000/svg" width="60" height="60" viewBox="0 0 60 60">
  <g id="icon6" transform="translate(-1339.995 -6195.668)">
    <path id="Path_355" data-name="Path 355" d="M1367.242,6216.318a3.164,3.164,0,1,0-3.165,3.164A3.168,3.168,0,0,0,1367.242,6216.318Zm-4.571,0a1.406,1.406,0,1,1,1.406,1.406A1.408,1.408,0,0,1,1362.671,6216.318Z" fill="#78c53c"/>
    <path id="Path_356" data-name="Path 356" d="M1375.73,6223.871a3.164,3.164,0,1,0,3.164-3.164A3.167,3.167,0,0,0,1375.73,6223.871Zm3.164-1.406a1.406,1.406,0,1,1-1.407,1.406A1.408,1.408,0,0,1,1378.894,6222.465Z" fill="#78c53c"/>
    <path id="Path_357" data-name="Path 357" d="M1359.594,6232.556a4.484,4.484,0,1,0,4.483-4.482A4.489,4.489,0,0,0,1359.594,6232.556Zm4.483-2.724a2.725,2.725,0,1,1-2.725,2.724A2.728,2.728,0,0,1,1364.077,6229.832Z" fill="#78c53c"/>
    <path id="Path_358" data-name="Path 358" d="M1396.831,6222.5a3.127,3.127,0,0,0-2.986,2.285h-3.85c-.5-1.641-1.459-2.425-1.659-3.308-.264-1.16.62-3.043-.125-4.586s-2.794-2.057-3.51-2.954a4.029,4.029,0,0,1-.549-1.187l6.772-6.772a3.613,3.613,0,0,0,1.865.582,3.737,3.737,0,1,0-3.1-1.828l-6.233,6.233a3.2,3.2,0,0,0-2.783-1.839.879.879,0,1,0-.251,1.739c1.248.181,1.433.526,1.944,2.09a4.823,4.823,0,0,0,2.772,3.474c1.7,1.016,1.775,1.209,1.519,3.127a4.818,4.818,0,0,0,.977,4.324c1.095,1.662,1.095,1.906,0,3.567a4.82,4.82,0,0,0-.977,4.325c.256,1.921.178,2.112-1.52,3.127a4.82,4.82,0,0,0-2.771,3.474c-.61,1.869-.776,1.993-2.718,2.173a4.826,4.826,0,0,0-4,1.923c-1.372,1.435-1.579,1.465-3.38.793a6.538,6.538,0,0,0-2.269-.548c-1.569,0-3.156,1.163-4.109.947a3.8,3.8,0,0,1-1.54-1.192,4.828,4.828,0,0,0-4-1.923c-1.943-.18-2.109-.3-2.719-2.174a4.822,4.822,0,0,0-2.771-3.473c-1.7-1.017-1.776-1.208-1.52-3.128a4.821,4.821,0,0,0-.976-4.324c-1.1-1.661-1.1-1.906,0-3.568a4.821,4.821,0,0,0,.976-4.324c-.256-1.918-.18-2.111,1.521-3.127a4.828,4.828,0,0,0,2.77-3.473,2.277,2.277,0,0,1,2.719-2.174,4.826,4.826,0,0,0,4-1.923c1.369-1.432,1.574-1.467,3.379-.793a4.96,4.96,0,0,0,4.539,0c2.216-.827,2.062-.461,3.894,1.316a.879.879,0,1,0,1.223-1.262c-.153-.148-.3-.308-.467-.476-1.906-1.992-2.84-2.129-5.264-1.225-.269.1-.526.192-.776.269v-4.873a3.127,3.127,0,0,0,2.285-2.986,3.164,3.164,0,0,0-6.329,0,3.127,3.127,0,0,0,2.286,2.986v4.873c-.25-.077-.508-.169-.777-.269-2.423-.9-3.358-.768-5.264,1.225a5.1,5.1,0,0,1-1.243,1.072,5.2,5.2,0,0,1-1.647.316c-1.768.164-2.845.393-3.646,1.934l-4.916-4.916a3.845,3.845,0,0,0-.5-4.761,3.9,3.9,0,0,0-5.508,0c-3.145,3.146.691,8.5,4.761,6l5.458,5.458c-.415,1.228-.572,1.387-1.882,2.169-2.329,1.392-2.709,2.253-2.361,4.869a5.206,5.206,0,0,1,.059,1.689c-.2.883-1.162,1.666-1.659,3.308h-3.85a3.127,3.127,0,0,0-2.986-2.285,3.164,3.164,0,1,0,0,6.328,3.128,3.128,0,0,0,2.986-2.285H1350c.5,1.641,1.459,2.423,1.66,3.307.263,1.16-.621,3.043.124,4.587s2.794,2.056,3.511,2.953a4.075,4.075,0,0,1,.548,1.187l-3.33,3.33a3.127,3.127,0,0,0-3.727.495,3.167,3.167,0,0,0,2.238,5.4,3.116,3.116,0,0,0,2.733-4.652l2.787-2.788c1.3,2.51,3.922,1.589,5.293,2.251,1.037.5,1.964,2.376,3.665,2.762,1.267.288,2.486-.383,3.619-.735v4.874a3.125,3.125,0,0,0-2.286,2.986,3.164,3.164,0,0,0,6.329,0,3.125,3.125,0,0,0-2.286-2.986v-4.874c1.15.356,2.354,1.023,3.619.735,1.7-.386,2.636-2.266,3.665-2.762,1.388-.671,3.981.273,5.293-2.251l.923.923a.879.879,0,0,0,1.243-1.243l-1.465-1.465c.415-1.23.573-1.387,1.882-2.169,2.329-1.392,2.709-2.253,2.361-4.869a3.221,3.221,0,0,1,.7-3.124,7.219,7.219,0,0,0,.9-1.872h3.851a3.128,3.128,0,0,0,2.986,2.285,3.164,3.164,0,0,0,0-6.328Zm-4.042-21.563a1.933,1.933,0,1,1-1.366,3.3A1.936,1.936,0,0,1,1392.789,6200.941Zm-24.2-2.109a1.406,1.406,0,1,1,1.406,1.406A1.408,1.408,0,0,1,1368.589,6198.832Zm-21.726,6.726a2.137,2.137,0,1,1,3.022,0A2.141,2.141,0,0,1,1346.863,6205.558Zm-3.7,21.516a1.406,1.406,0,1,1,1.406-1.406A1.408,1.408,0,0,1,1343.16,6227.074Zm8.854,18.564a1.406,1.406,0,1,1-.995-2.4A1.409,1.409,0,0,1,1352.014,6245.638Zm19.388,6.866a1.406,1.406,0,1,1-1.407-1.407A1.408,1.408,0,0,1,1371.4,6252.5Zm25.429-25.43a1.406,1.406,0,1,1,1.407-1.406A1.408,1.408,0,0,1,1396.831,6227.074Z" fill="#78c53c"/>
    <path id="Path_359" data-name="Path 359" d="M1389.652,6244.081l-1.5-1.5a.88.88,0,1,0-1.244,1.244l1.5,1.5a3.768,3.768,0,0,0,.495,4.654,3.819,3.819,0,1,0,5.4-5.4A3.768,3.768,0,0,0,1389.652,6244.081Zm3.411,4.655a2.062,2.062,0,1,1,0-2.916A2.062,2.062,0,0,1,1393.063,6248.736Z" fill="#78c53c"/>
  </g>
</svg>
