<svg xmlns="http://www.w3.org/2000/svg" viewBox="0 0 60 60"><defs><style>.cls-1{fill:#78c53c;}</style></defs><g id="Layer_2" data-name="Layer 2"><g id="Design"><path class="cls-1" d="M59.74.26a.86.86,0,0,0-1.24,0L49.84,8.91a2.53,2.53,0,0,0-2.15,0,17,17,0,0,0-4.7,3.5l-.21-.21a3.24,3.24,0,0,0-4.56,0l-2.87,2.87a.88.88,0,0,0,1.25,1.25l2.87-2.88a1.47,1.47,0,0,1,2.07,0l5,5a1.47,1.47,0,0,1,0,2.07l-.88.87L43,18.75a.88.88,0,0,0-1.24,0,.86.86,0,0,0,0,1.24l2.65,2.66L43.07,24l-1.82-1.82a.88.88,0,0,0-1.24,0,.86.86,0,0,0,0,1.24l1.82,1.83L40.5,26.55l-2.65-2.66a.88.88,0,0,0-1.24,0,.86.86,0,0,0,0,1.24l2.65,2.66-1.33,1.33-1.82-1.83a.88.88,0,0,0-1.24,0,.86.86,0,0,0,0,1.24l1.82,1.83-1.33,1.33L32.71,29a.88.88,0,0,0-1.24,1.25l2.65,2.65-1.58,1.58L30.3,32.27a.86.86,0,0,0-1.24,0,.88.88,0,0,0,0,1.24l2.24,2.24L30,37.08l-7-7,1.33-1.33,1.84,1.84a.88.88,0,0,0,1.24,0,.86.86,0,0,0,0-1.24l-1.84-1.84,8.21-8.2A.88.88,0,0,0,32.45,18l-16,16L14.8,32.35A2.7,2.7,0,1,0,11,36.16l4.32,4.32L12,43.78A.88.88,0,1,0,13.23,45l3.31-3.31,1.82,1.82-8,8.05L8.5,49.76l1.83-1.83a.89.89,0,0,0,0-1.25.88.88,0,0,0-1.24,0L7.25,48.52,4.6,45.87A2.7,2.7,0,0,0,.78,49.68l9.54,9.54a2.7,2.7,0,1,0,3.81-3.82l-2.57-2.57,8-8,.8.8a.88.88,0,0,0,1.25-1.24l-9.43-9.43a.94.94,0,0,1,1.32-1.33L26.41,46.45a.94.94,0,0,1-1.33,1.32l-.52-.52a.89.89,0,0,0-1.25,0,.88.88,0,0,0,0,1.24l.53.53a2.68,2.68,0,0,0,1.9.78,2.69,2.69,0,0,0,1.91-4.6L26,43.54,47.76,21.78a3.24,3.24,0,0,0,0-4.56L47.55,17a17,17,0,0,0,3.5-4.7,2.53,2.53,0,0,0,0-2.15L59.74,1.5a.86.86,0,0,0,0-1.24ZM12.89,58a.94.94,0,0,1-1.33,0L2,48.44a.94.94,0,0,1,0-1.33.92.92,0,0,1,1.32,0l9.54,9.54A.92.92,0,0,1,12.89,58ZM20.35,37.9l4-4,1.83,1.83-4,4Zm7-.91,1.33,1.33-4,4L23.42,41Zm-5.72-5.72,1.41,1.41-4,4L17.7,35.25Zm27.8-19.74a15.48,15.48,0,0,1-3.17,4.24l-2.08-2.08a15.48,15.48,0,0,1,4.24-3.17.75.75,0,0,1,1,1Z"/></g></g></svg>