<svg xmlns="http://www.w3.org/2000/svg" viewBox="0 0 50 50"><defs><style>.cls-1{fill:#78c53c;}</style></defs><g id="Layer_2" data-name="Layer 2"><g id="Design"><path class="cls-1" d="M45.55,10.75A1,1,0,1,0,44,11.87a23.06,23.06,0,1,1-5.67-5.71,1,1,0,1,0,1.13-1.59,24.95,24.95,0,1,0,6.14,6.18Z"/><path class="cls-1" d="M42.69,7.33l0,0a1,1,0,0,0-1.38,1.38l0,0a1,1,0,0,0,1.38-1.38Z"/><path class="cls-1" d="M36.77,16.17h-8.3a1.71,1.71,0,0,1-1.71-1.7,1,1,0,1,0-2,0,3.66,3.66,0,0,0,3.66,3.66h8.3a1.71,1.71,0,0,1,1.71,1.7v.45a1,1,0,1,0,2,0v-.45A3.66,3.66,0,0,0,36.77,16.17Z"/><path class="cls-1" d="M37.61,39.54,10.46,12.39a1,1,0,0,0-.75-.28,1,1,0,0,0-.71.37A20.32,20.32,0,0,0,37.52,41a1,1,0,0,0,.37-.71A1,1,0,0,0,37.61,39.54ZM18.46,24.22h1.06L23,27.73H18.46ZM25,43.36A18.37,18.37,0,0,1,9.88,14.58l7.69,7.69h-7a1,1,0,0,0-1,1v5.47a1,1,0,0,0,1,1H25L35.42,40.12A18.28,18.28,0,0,1,25,43.36ZM16.5,24.22v3.51h-5V24.22Z"/><path class="cls-1" d="M19.49,14.79a1,1,0,0,0-.69-.29,1,1,0,0,0-.69.29,1,1,0,0,0,0,1.38,1,1,0,0,0,.69.29,1,1,0,0,0,.69-.29,1,1,0,0,0,0-1.38Z"/><path class="cls-1" d="M39.36,10.64A20.32,20.32,0,0,0,12.48,9a1,1,0,0,0-.37.71,1,1,0,0,0,.28.75l3.43,3.43a1,1,0,0,0,1.38,0,1,1,0,0,0,0-1.38L14.58,9.88A18.36,18.36,0,0,1,40.12,35.42l-5.74-5.73h5.07a1,1,0,0,0,1-1V23.24a1,1,0,0,0-1-1H27l-5.14-5.15a1,1,0,0,0-1.38,1.38l19.1,19.11a1,1,0,0,0,.69.28h.06a1,1,0,0,0,.71-.37A20.31,20.31,0,0,0,39.36,10.64ZM36.42,24.22h2.06v3.51H36.42Zm-7.51,0h5.56v3.51h-2Z"/></g></g></svg>