<svg xmlns="http://www.w3.org/2000/svg" width="73.102" height="50" viewBox="0 0 73.102 50">
  <g id="icon4" transform="translate(-514.285 -6200.542)">
    <path id="Path_393" data-name="Path 393" d="M584.8,6231.777h-2.717a2.6,2.6,0,0,0-2.591,2.591v2.843h-1.61v-6.918a9.409,9.409,0,0,0-9.383-9.383h-16.3a1.717,1.717,0,0,1-1.433-.769,4.149,4.149,0,0,0-4.959-1.573l-.107.042-1.762-3.525a6.648,6.648,0,0,0-5.379-3.643l-.229-.019.139-.183a6.658,6.658,0,1,0-10.556.042.121.121,0,0,1,.023.024l.128.166-.206.035a5.274,5.274,0,0,0-4.295,6.088c.017.1.038.206.062.307l2.542,11.018-.983.517a1.2,1.2,0,0,0-.221.149c-1.818,1.539-1.5,3.974.951,7.236l.291.389h-4.015v-16.427a2.6,2.6,0,0,0-2.591-2.591h-2.717a2.6,2.6,0,0,0-2.591,2.591v27.168a2.6,2.6,0,0,0,2.591,2.591h2.717a2.6,2.6,0,0,0,2.591-2.591v-1.484h57.3v1.484a2.6,2.6,0,0,0,2.591,2.591H584.8a2.6,2.6,0,0,0,2.591-2.591v-13.584A2.6,2.6,0,0,0,584.8,6231.777ZM545.939,6221.3a1.211,1.211,0,0,0,.222-.149,1.724,1.724,0,0,1,2.43.2,1.762,1.762,0,0,1,.117.155,4.133,4.133,0,0,0,.6.7l.124.115-7.557,4.408a1.232,1.232,0,0,0,1.242,2.129l9.406-5.487h15.968a6.938,6.938,0,0,1,6.918,6.918v6.918H529.281l-1.4-1.868c-.988-1.317-2.038-3.042-1.422-3.783l.038-.031Zm-16.928-14.628h0a4.216,4.216,0,0,1,4.163-3.671,4.277,4.277,0,0,1,.533.033,4.2,4.2,0,0,1-.526,8.368,4.375,4.375,0,0,1-.533-.033,4.2,4.2,0,0,1-3.637-4.7Zm-2.99,10.678a2.843,2.843,0,0,1,2.765-3.483h9.2a4.153,4.153,0,0,1,3.743,2.323l1.8,3.6-15.106,7.949-.037-.159Zm58.9,30.728h-2.968v-2.841a1.236,1.236,0,0,0-1.233-1.234H520.952a1.234,1.234,0,0,0-1.233,1.233v2.842h-2.968v-27.418h2.968v17.784a1.232,1.232,0,0,0,1.232,1.233h59.771a1.232,1.232,0,0,0,1.232-1.232v-4.2h2.968Z" fill="#78c53c"/>
    <path id="Path_394" data-name="Path 394" d="M537.689,6232.058l.372-.217a1.235,1.235,0,0,0-.624-2.3,1.217,1.217,0,0,0-.618.169l-.372.217a1.232,1.232,0,1,0,1.242,2.129Z" fill="#78c53c"/>
  </g>
</svg>
