<svg xmlns="http://www.w3.org/2000/svg" width="29" height="29" viewBox="0 0 29 29">
  <g id="line" transform="translate(-1394.258 -9252.303)">
    <rect id="Rectangle_263" data-name="Rectangle 263" width="29" height="29" rx="6.538" transform="translate(1394.258 9252.303)" fill="#06c755"/>
    <g id="Group_316" data-name="Group 316">
      <g id="Group_315" data-name="Group 315">
        <g id="Group_313" data-name="Group 313">
          <path id="Path_351" data-name="Path 351" d="M1418.424,9265.436c0-4.325-4.337-7.846-9.669-7.846s-9.668,3.521-9.668,7.846c0,3.88,3.44,7.128,8.086,7.741.315.068.743.208.852.478a1.987,1.987,0,0,1,.031.874s-.113.683-.138.828c-.042.243-.194.955.837.521a31.2,31.2,0,0,0,7.6-5.613h0A6.981,6.981,0,0,0,1418.424,9265.436Z" fill="#fff"/>
        </g>
        <g id="Group_314" data-name="Group 314">
          <path id="Path_352" data-name="Path 352" d="M1415.208,9267.934h-2.717a.183.183,0,0,1-.184-.184v0h0v-4.213h0v0a.184.184,0,0,1,.184-.185h2.717a.185.185,0,0,1,.184.185v.686a.184.184,0,0,1-.184.186h-1.846v.712h1.846a.185.185,0,0,1,.184.184v.687a.183.183,0,0,1-.184.184h-1.846v.713h1.846a.185.185,0,0,1,.184.185v.686A.183.183,0,0,1,1415.208,9267.934Z" fill="#06c755"/>
          <path id="Path_353" data-name="Path 353" d="M1405.16,9267.934a.183.183,0,0,0,.184-.184v-.686a.185.185,0,0,0-.184-.185h-1.846v-3.35a.186.186,0,0,0-.185-.185h-.686a.184.184,0,0,0-.184.185v4.217h0v0a.183.183,0,0,0,.184.184h2.717Z" fill="#06c755"/>
          <rect id="Rectangle_264" data-name="Rectangle 264" width="1.055" height="4.589" rx="0.185" transform="translate(1405.925 9263.346)" fill="#06c755"/>
          <path id="Path_354" data-name="Path 354" d="M1411.463,9263.346h-.686a.184.184,0,0,0-.184.185v2.506l-1.931-2.607-.015-.019h0l-.011-.012,0,0-.01-.008-.005,0-.009-.007-.006,0-.01-.006-.006,0-.011,0-.006,0-.011,0-.007,0-.011,0h-.007l-.01,0h-.7a.184.184,0,0,0-.184.185v4.22a.183.183,0,0,0,.184.184h.686a.184.184,0,0,0,.185-.184v-2.506l1.933,2.611a.191.191,0,0,0,.047.046l0,0,.011.007.005,0,.009,0,.009,0,.006,0,.013,0h0a.19.19,0,0,0,.048.006h.682a.183.183,0,0,0,.184-.184v-4.22A.184.184,0,0,0,1411.463,9263.346Z" fill="#06c755"/>
        </g>
      </g>
    </g>
  </g>
</svg>
