<?xml version="1.0" encoding="UTF-8"?><svg id="Layer_2" xmlns="http://www.w3.org/2000/svg" viewBox="0 0 46.9 40"><defs><style>.cls-1{fill:#fff;}</style></defs><g id="Design"><path class="cls-1" d="M39.51,1.63C36.19-.1,32.36-.47,29,.6c-3.21,1.03-5.8,3.33-7.49,6.66-.26,.52-.5,1.07-.72,1.63-.12,.31-.53,.37-.73,.1-2.06-2.74-5.04-4.38-8.44-4.38-3.65,0-6.82,1.54-8.93,4.33C.13,12.33-.68,17.22,.59,21.72c2.35,8.37,11.14,14.85,18.58,18.12,.24,.11,.49,.16,.74,.16,.77,0,1.49-.48,1.75-1.28,.04-.12,.06-.25,.07-.37,0-.03,0-.06,0-.09,0-.02,0-.03,0-.05,0-.01,0-.02,0-.04v-7.53c0-.81,.68-1.47,1.51-1.47s1.51,.66,1.51,1.47v7.53c0,.9,.73,1.64,1.64,1.64h.02c.9,0,1.64-.73,1.64-1.64v-7.53c0-.81,.68-1.47,1.51-1.47s1.51,.66,1.51,1.47v7.53c0,.9,.73,1.64,1.64,1.64h.02c.9,0,1.64-.73,1.64-1.64v-7.53c0-.81,.68-1.47,1.51-1.47s1.51,.66,1.51,1.47v7.53c0,.9,.73,1.64,1.64,1.64s1.64-.73,1.64-1.64v-7.53c0-2.62-2.15-4.74-4.78-4.74-1.21,0-2.31,.45-3.16,1.18-.84-.74-1.95-1.18-3.16-1.18s-2.31,.45-3.16,1.18c-.84-.74-1.95-1.18-3.16-1.18-2.64,0-4.78,2.13-4.78,4.74v4.82c-3.03-1.56-5.88-3.5-8.18-5.6-3.17-2.89-5.3-6.04-6.16-9.12-.95-3.37-.36-7.12,1.49-9.57,1.43-1.88,3.51-2.88,6.02-2.88s4.45,1.44,5.8,3.36c1.58,2.25,4.87,3.34,6.67-1.12,.1-.26,.43-1.09,.69-1.6,1.25-2.47,3.05-4.1,5.34-4.83,2.43-.78,5.24-.49,7.71,.79,2.34,1.21,4.09,3.21,4.8,5.47,1.28,4.09,.53,8.29-2.08,11.55-.57,.71-.55,1.76,.08,2.42,.37,.39,.85,.57,1.33,.57,.54,0,1.07-.23,1.43-.69,3.39-4.23,4.38-9.68,2.73-14.95-1.01-3.23-3.36-5.94-6.61-7.62Z"/></g></svg>