<svg xmlns="http://www.w3.org/2000/svg" viewBox="0 0 20 20"><defs><style>.cls-1{fill:#78c53c;}</style></defs><g id="Layer_2" data-name="Layer 2"><g id="Design"><path class="cls-1" d="M15.48,20a7.42,7.42,0,0,1-3.38-.92,22,22,0,0,1-6.43-4.75A22,22,0,0,1,.92,7.9c-2-3.87-.2-6.13.4-6.73L2,.5A1.54,1.54,0,0,1,3.09,0,1.59,1.59,0,0,1,4.26.58,33.67,33.67,0,0,1,6.59,3.9a2.11,2.11,0,0,1-.31,2.61L5,7.8A19,19,0,0,0,8.1,11.9,19,19,0,0,0,12.2,15l1.29-1.3a2.09,2.09,0,0,1,2.61-.31,33.67,33.67,0,0,1,3.32,2.33A1.59,1.59,0,0,1,20,16.88,1.54,1.54,0,0,1,19.5,18l-.66.66A4.68,4.68,0,0,1,15.48,20Z"/></g></g></svg>